<?xml version="1.0" encoding="UTF-8" standalone="no"?>
<svg
   xmlns:dc="http://purl.org/dc/elements/1.1/"
   xmlns:cc="http://creativecommons.org/ns#"
   xmlns:rdf="http://www.w3.org/1999/02/22-rdf-syntax-ns#"
   xmlns:svg="http://www.w3.org/2000/svg"
   xmlns="http://www.w3.org/2000/svg"
   xmlns:sodipodi="http://sodipodi.sourceforge.net/DTD/sodipodi-0.dtd"
   xmlns:inkscape="http://www.inkscape.org/namespaces/inkscape"
   id="Ebene_1"
   data-name="Ebene 1"
   viewBox="0 0 485.11 221.02"
   version="1.1"
   sodipodi:docname="Rolle-01-rot-grün.svg"
   inkscape:export-filename="/home/benutzer/Schreibtisch/RolleStattKnolle.png"
   inkscape:export-xdpi="460.10001"
   inkscape:export-ydpi="460.10001"
   inkscape:version="0.92.3 (2405546, 2018-03-11)">
  <metadata
     id="metadata130">
    <rdf:RDF>
      <cc:Work
         rdf:about="">
        <dc:format>image/svg+xml</dc:format>
        <dc:type
           rdf:resource="http://purl.org/dc/dcmitype/StillImage" />
        <dc:title>Rolle</dc:title>
      </cc:Work>
    </rdf:RDF>
  </metadata>
  <sodipodi:namedview
     pagecolor="#ffffff"
     bordercolor="#666666"
     borderopacity="1"
     objecttolerance="10"
     gridtolerance="10"
     guidetolerance="10"
     inkscape:pageopacity="0"
     inkscape:pageshadow="2"
     inkscape:window-width="1920"
     inkscape:window-height="1029"
     id="namedview128"
     showgrid="false"
     inkscape:zoom="2.1514495"
     inkscape:cx="263.48579"
     inkscape:cy="98.024041"
     inkscape:window-x="0"
     inkscape:window-y="0"
     inkscape:window-maximized="1"
     inkscape:current-layer="Ebene_1" />
  <defs
     id="defs4">
    <style
       id="style2">.cls-1,.cls-12,.cls-2{fill:#ff00a0;}.cls-1,.cls-13{fill-rule:evenodd;}.cls-2{font-size:42px;font-family:BitstreamVeraSansMono-Bold, Bitstream Vera Sans Mono;font-weight:700;}.cls-3{letter-spacing:-0.1em;}.cls-4{letter-spacing:-0.14em;}.cls-5{letter-spacing:-0.06em;}.cls-6{letter-spacing:0.06em;}.cls-7{letter-spacing:-0.02em;}.cls-8{letter-spacing:-0.03em;}.cls-9{letter-spacing:0.04em;}.cls-10{letter-spacing:0.02em;}.cls-11{letter-spacing:-0.06em;}.cls-14{fill:#fff;}</style>
  </defs>
  <title
     id="title6">Rolle</title>
  <g
     id="path3755"
     inkscape:export-filename="/home/benutzer/Schreibtisch/path3755.png"
     inkscape:export-xdpi="96"
     inkscape:export-ydpi="96">
    <path
       class="cls-1"
       d="M246.24,72.42l-1,24,17.65,4.43A12,12,0,0,0,265,113.62a13.08,13.08,0,0,0,18,1.28,12.15,12.15,0,0,0,4.34-8l60.95,15.86c0,.13,0,.27-.07.4a6.81,6.81,0,0,0-.16.86,2.2,2.2,0,0,0,0,.36c0,.32-.08.65-.1,1a13.28,13.28,0,0,0,13,13.57,13.79,13.79,0,0,0,8.48-2.48l.1-.07a.71.71,0,0,0,.14-.1s.05-.05.08-.07a9.56,9.56,0,0,0,.82-.6,12.17,12.17,0,0,0,4-6.36,2.61,2.61,0,0,0,.06-.27l17,4,12-24.18s-10.88-3.31-32.2-10L365,72.29,306.49,57.52h0l-24.67,20c-15.26-2.52-26.1-4.11-31.36-4.76ZM308.11,61.8,327,66.7l-4.62,18.74c-11.89-2.73-23.87-5-34.73-6.9Zm23.28,6.07,23.36,6-.39,19.84c-7.92-2.26-16.52-4.57-25.79-6.83L327,86.53Z"
       id="path8"
       style="fill:#ff000b;fill-opacity:1" />
  </g>
  <text
     class="cls-2"
     transform="translate(68.27 188.42)"
     id="text41"
     style="fill:#00ff0a;fill-opacity:1;"
     inkscape:export-filename="/home/benutzer/Schreibtisch/path3755.png"
     inkscape:export-xdpi="96"
     inkscape:export-ydpi="96">R<tspan
   class="cls-3"
   x="25.29"
   y="0"
   id="tspan11"
   style="fill:#00ff0a;fill-opacity:1;">o</tspan>
<tspan
   class="cls-4"
   x="46.37"
   y="0"
   id="tspan13"
   style="fill:#00ff0a;fill-opacity:1;">l</tspan>
<tspan
   class="cls-5"
   x="65.78"
   y="0"
   id="tspan15"
   style="fill:#00ff0a;fill-opacity:1;">l</tspan>
<tspan
   class="cls-6"
   x="88.54"
   y="0"
   id="tspan17"
   style="fill:#00ff0a;fill-opacity:1;">e</tspan>
<tspan
   class="cls-5"
   x="116.35"
   y="0"
   id="tspan19"
   style="fill:#00ff0a;fill-opacity:1;">S</tspan>
<tspan
   class="cls-7"
   x="139.12"
   y="0"
   id="tspan21"
   style="fill:#00ff0a;fill-opacity:1;">t</tspan>
<tspan
   class="cls-8"
   x="163.56"
   y="0"
   id="tspan23"
   style="fill:#00ff0a;fill-opacity:1;">a</tspan>
<tspan
   class="cls-4"
   x="187.59"
   y="0"
   id="tspan25"
   style="fill:#00ff0a;fill-opacity:1;">t</tspan>
<tspan
   class="cls-9"
   x="207"
   y="0"
   id="tspan27"
   style="fill:#00ff0a;fill-opacity:1;">t</tspan>
<tspan
   class="cls-10"
   x="233.96"
   y="0"
   id="tspan29"
   style="fill:#00ff0a;fill-opacity:1;">K</tspan>
<tspan
   x="260.09"
   y="0"
   id="tspan31"
   style="fill:#00ff0a;fill-opacity:1;">n</tspan>
<tspan
   class="cls-3"
   x="285.37"
   y="0"
   id="tspan33"
   style="fill:#00ff0a;fill-opacity:1;">o</tspan>
<tspan
   class="cls-4"
   x="306.46"
   y="0"
   id="tspan35"
   style="fill:#00ff0a;fill-opacity:1;">l</tspan>
<tspan
   class="cls-11"
   x="325.87"
   y="0"
   id="tspan37"
   style="fill:#00ff0a;fill-opacity:1;">l</tspan>
<tspan
   class="cls-9"
   x="348.63"
   y="0"
   id="tspan39"
   style="fill:#00ff0a;fill-opacity:1;">e</tspan>
</text>
  <path
     d="M38.68,144.54c1.28.13,3.46.08,5.53.05A51.72,51.72,0,0,0,38.68,144.54Z"
     id="path43"
     inkscape:export-filename="/home/benutzer/Schreibtisch/path3755.png"
     inkscape:export-xdpi="96"
     inkscape:export-ydpi="96" />
  <path
     d="M44.25,144.59h0Z"
     id="path45"
     inkscape:export-filename="/home/benutzer/Schreibtisch/path3755.png"
     inkscape:export-xdpi="96"
     inkscape:export-ydpi="96" />
  <path
     d="M445.9,137.31l-1.7.05C444.77,137.35,445.35,137.34,445.9,137.31Z"
     id="path47"
     inkscape:export-filename="/home/benutzer/Schreibtisch/path3755.png"
     inkscape:export-xdpi="96"
     inkscape:export-ydpi="96" />
  <path
     d="M144.46,143.7l.32-.28c4.9,0,1.42.33,6,.27,1.78-.39,7.54.07,9.11-.13a14.35,14.35,0,0,1,2.05.18,25.2,25.2,0,0,1,3.68-.08c.51-.06-.37-.07-.75-.13l3.21-.06c1.26.08,1.57.21.2.22,8.4.14,48.73.64,57.78.59-1.16-.17-4-.08-5-.34,2.4-.12,3.52.08,4.58-.07.91.39,5.26.13,7.06.53l.69-.21,1.19.14c10.52-.15,2.41-.09,11.73,0,5.4,0,8-.28,11-.15-.45,0-1.64-.14-.24-.19.24.19,3.73-.11,4.41.09,1.37,0,5.8,0,4.3-.23.76.14,4.71.22,2.36.31,1.33,0,2.63.07,3.59,0l-1.72-.09c4.51,0,7,.22,9.91,0l-1.67-.11a35.6,35.6,0,0,1,6,.25l-2.78.07c4.49,0,7.2,0,10.93-.15H291c4.78-.25,29.6-.69,33.94-.94l-2-.2,3.75-.16c-.45,0-1.81.64-2.19.57,2,0,6.13,0,11.29.09l17.61.37,28.51.56c3,.15.54.32.51.35,3.66,0,1.58-.18,4.69-.13.85,0-.18.16-.66.18a24.75,24.75,0,0,0,2.74,0c-1.71-.09-1-.33-1.7-.49l4,.06-.18.15a49.15,49.15,0,0,1,6.2-.28c6.64.12,13.85.09,20.52.1a20.3,20.3,0,0,1-2.91.21c.9,0,2.26,0,3.09,0-1.62-.16,2.8-.12,1.54-.18,4.88-.4,11.22-.12,15.53-.45.39-.34,9.11-6.05,9.08-6.47,1.33,0,2.66-.06,3.06,0a37.52,37.52,0,0,0-4.35,0l-.23.23c-3.2.16-.76-.11-3.88,0-.17-.17,2.7-.26,5.23-.36a47.25,47.25,0,0,0-5.47.18c-2.15,0,.23-.23-2.35-.25-1.84.09-4.25.29-6.37.22l0,0c-5.14-.12-7.86.35-12.57.18l.51-.06c-1.66-.09-4.93,0-7.93-.06.86,0,1.6.16-.2.18-3.45-.11-5.8,0-8.32-.17l-2.42.16c-6,0-20.87-.16-35.74-.4l-21.21-.38c-6.35-.15-11.64-.19-14.67-.2l.48,0c-9.25-.05-23.33.15-37.42.25H252.75c-2.94-.19-7-.18-10.07-.25,1.71.08,1.12.2-.21.18-9.36-.08-.63.12-10.1.12-10.89.09-52.58-.4-62.24-.61-5.2.21-11.69,0-16.79.12l.52-.06-21.07,0c-9.22,0-18.55,0-21.73.09l.85,0c-5.54.2-4.79-.08-9.16-.12.58.27-4.17.5-6,.54l.07-.06c-2.73.08-8.92.41-13.43.53l.18-.16c-3.76.23-10.84.3-13.54.37-6.19.07-15.73,0-24,.46l-5.35-.28-.78.06s-8.43,5.6,2.5,6.41l-.16.16,2.15-.08c2.59,0,3.78-.21,3.61-.05l-3.55.08c2.6,0,.79.1-.2.22,1.09,0,2.14,0,3,0,.51-.08-.37-.06-.78-.08,1.4-.09,3.34-.29,5-.27,2.66-.05.18.25,3.28.19,16.37-.3,32.24-.41,48.78-.63.38.06-.07.06-.55.09l14-.23a12.33,12.33,0,0,1,2,.21c-.37-.06,5.9-.14,12.31-.17l8.91,0Z"
     id="path49"
     inkscape:export-filename="/home/benutzer/Schreibtisch/path3755.png"
     inkscape:export-xdpi="96"
     inkscape:export-ydpi="96" />
  <path
     d="M395,38a.37.37,0,0,1,.14.08s0,0,0-.08a.23.23,0,0,1,0-.07s0,0,0,0h0l-.09.17h0s0,0-.11.07a.49.49,0,0,0,.11-.08h0l.09-.17h0s0,0,0,0a.29.29,0,0,0,.05.14A.4.4,0,0,0,395,38Z"
     id="path51"
     inkscape:export-filename="/home/benutzer/Schreibtisch/path3755.png"
     inkscape:export-xdpi="96"
     inkscape:export-ydpi="96" />
  <polygon
     points="394.88 38.16 394.87 38.16 394.88 38.16 394.88 38.16"
     id="polygon53"
     inkscape:export-filename="/home/benutzer/Schreibtisch/path3755.png"
     inkscape:export-xdpi="96"
     inkscape:export-ydpi="96" />
  <path
     d="M395.11,91.9v-.2A.44.44,0,0,0,395.11,91.9Z"
     id="path55"
     inkscape:export-filename="/home/benutzer/Schreibtisch/path3755.png"
     inkscape:export-xdpi="96"
     inkscape:export-ydpi="96" />
  <path
     d="M390.88,51.2l.28.06c0,.65-.33.17-.29.78.38.26-.1,1,.09,1.23,0,0-.06.29-.18.26.21.1,0,.31.08.5s.06-.05.13-.1l.05.44c-.08.16-.21.19-.22,0-.13,1.12-.72,6.46-.73,7.67.18-.14.1-.52.37-.64.11.33-.09.47.05.62-.39.09-.15.69-.55.9l.2.11-.14.15c.1,1.41.08.32-.08,1.56,0,.72.23,1.09.09,1.48,0-.06.15-.21.19,0-.19,0,.09.51-.11.58,0,.19-.07.77.2.6-.13.09-.24.61-.32.28a1.39,1.39,0,0,0,0,.48l.1-.22c0,.6-.25.91-.06,1.32l.12-.21c0,.36,0,.66-.29.78l-.05-.38a5.53,5.53,0,0,0,0,1.47l0-.18c.19.66,0,4,.28,4.58l.23-.24.1.51c0-.06-.61-.32-.54-.36-.1,1-.71,6.68-1,7.68-.16.4-.32,0-.35,0,0,.5.18.24.11.66-.05.11-.15,0-.17-.11,0,.18-.09.35,0,.37.1-.22.33-.09.5-.17l-.08.54-.16,0c0,.12.39.35.25.88-.18.89-.22,1.88-.35,2.8-.09,0-.13-.22-.16-.42a1,1,0,0,1-.09.42c.18-.21.08.4.16.23.32.71-.09,1.57.13,2.2.17,0,1.62.44,3.08.79a30.71,30.71,0,0,0,3.14.64,1.13,1.13,0,0,1-.05.35c.09,0,.14-.34.09-.5l-.21,0c-.07-.38.12-.08.12-.46.18,0,.2.34.22.62,0-.25.16-.52,0-.64.09-.26.22,0,.31-.27s-.2-.53-.07-.79h0c.22-.63-.19-1,0-1.6l.05.07c.12-.21,0-.64.17-1,0,.11-.18.19-.18,0,.16-.44.08-.76.26-1.07l-.14-.34c.16-1.6.82-7.94,1-9.55l0,.06c.24-2.56.77-7.62.76-10.24a4.73,4.73,0,0,0,.3-1.35c-.09.23-.2.14-.18,0,.13-1.27-.11-.1-.07-1.38,0-1.49.57-7.13.78-8.43a22.13,22.13,0,0,1-.09-2.29l.06.07c0-.74.4-4.93.33-5.8l0,.12c-.12-.76.15-.65.26-1.24-.29.07-.42-.58-.44-.83h.07a17.48,17.48,0,0,1-.27-1.83l.15,0a8.34,8.34,0,0,1-.06-1.84c.06-.41.13-1,.21-1.51q0-.44.06-.87c0-.15,0-.3,0-.44s0-.39-.09-.84a3,3,0,0,0-.53-1.88,3.41,3.41,0,0,0-.5-.59,2.85,2.85,0,0,0-.86-.58,3.57,3.57,0,0,0-2.57-.13,3.28,3.28,0,0,0-.92.57,3,3,0,0,0-.28,1.67,2.41,2.41,0,0,0,.74,1.64,1,1,0,0,0,.75.26,1,1,0,0,0,.53-.27c.2-.31.4-.63.58-.95l.26-.48,0-.12,0-.06-.59,1,0,0c-.06.05,0,0,.14.07s.08.07.05,0a.35.35,0,0,1,0-.14h0l-.09.17h0a.55.55,0,0,1-.14.09,4.15,4.15,0,0,1-1.38.2h.12l.6-.05a2.3,2.3,0,0,0,.65-.15,1.36,1.36,0,0,1-.39.11,1.44,1.44,0,0,0,.43-.13,3.56,3.56,0,0,1-1.43.22h.05c.2,0,.44,0,.55,0a10,10,0,0,1-1,0h-1.09a.34.34,0,0,1,0,.08.6.6,0,0,1,0,.35c0,.35-.25,0-.28.43-.17,2.19-.41,4.3-.47,6.51-.06,0-.06,0-.08-.08,0,.67,0,1.26,0,1.87a.53.53,0,0,1-.24.25,6.76,6.76,0,0,1,0,1.65c0,.42,0,.86-.05,1.19A5,5,0,0,1,390.88,51.2Z"
     id="path57"
     inkscape:export-filename="/home/benutzer/Schreibtisch/path3755.png"
     inkscape:export-xdpi="96"
     inkscape:export-ydpi="96"
     style="fill:#ff000b;fill-opacity:1" />
  <path
     d="M407.42,36.25a1.27,1.27,0,0,0-.28.76A1.16,1.16,0,0,0,407.42,36.25Z"
     id="path59"
     inkscape:export-filename="/home/benutzer/Schreibtisch/path3755.png"
     inkscape:export-xdpi="96"
     inkscape:export-ydpi="96" />
  <path
     d="M407.14,37h0Z"
     id="path61"
     inkscape:export-filename="/home/benutzer/Schreibtisch/path3755.png"
     inkscape:export-xdpi="96"
     inkscape:export-ydpi="96" />
  <path
     d="M410.26,93.88v-.24A1,1,0,0,0,410.26,93.88Z"
     id="path63"
     inkscape:export-filename="/home/benutzer/Schreibtisch/path3755.png"
     inkscape:export-xdpi="96"
     inkscape:export-ydpi="96" />
  <path
     d="M405.55,51l.28.07c-.05.69-.34.18-.32.82.38.28-.12,1.05.07,1.29,0,0-.07.3-.19.27.21.11,0,.33.06.53s.07,0,.14-.1l0,.46c-.08.17-.21.2-.22,0-.17,1.17-.82,6.8-.81,8.07.17-.15.1-.55.36-.67.12.34-.09.49.05.65-.39.09-.15.72-.55.95l.21.11-.15.16c.11,1.49.09.34-.07,1.64,0,.76.24,1.15.1,1.56,0-.07.15-.22.19,0-.19,0,.1.53-.1.61,0,.19-.06.81.21.62-.14.1-.23.65-.32.31a1.48,1.48,0,0,0,0,.5l.09-.23c0,.63-.24,1,0,1.39l.12-.22c0,.38,0,.69-.29.82l-.05-.39a6,6,0,0,0,0,1.54l0-.19c.21.69.14,4.18.41,4.82l.22-.27.13.54c0-.06-.62-.3-.56-.35-.07,1.13-.37,7-.59,8.05-.14.41-.32,0-.35,0,0,.52.19.24.14.67,0,.12-.15,0-.17-.1,0,.19-.08.36,0,.38.09-.23.33-.11.5-.2l-.07.56-.15,0c0,.13.4.35.27.9-.14.92-.16,1.93-.27,2.86-.09,0-.13-.22-.17-.42a1.22,1.22,0,0,1-.08.43c.18-.21.07.4.16.23.32.71-.09,1.57.12,2.19.33.08,5.74,1.75,6.14,1.78a1.34,1.34,0,0,1-.08.43c.1,0,.18-.4.14-.6l-.22-.06c0-.45.14-.09.16-.53.18,0,.18.4.17.75.05-.31.2-.62,0-.77.1-.3.21,0,.32-.31s-.18-.61-.05-.9h0c.24-.71-.18-1.13.05-1.78l.05.08c.12-.22,0-.69.16-1.11,0,.12-.18.21-.18,0,.15-.48.07-.81.23-1.16l-.15-.35c.17-1.68.45-8.35.55-10l0,.07c.12-2.58.55-7.88.52-10.56a5.54,5.54,0,0,0,.29-1.4c-.09.24-.21.15-.19,0,.13-1.31-.11-.1-.08-1.43a82.68,82.68,0,0,1,.86-8.7,18.81,18.81,0,0,1,0-2.37l.05.08c0-.77.54-5.09.52-6l0,.11c-.1-.79.17-.66.3-1.26-.29.06-.39-.62-.4-.88l.07,0c0-.39-.2-1.27-.19-1.91l.15,0a9.12,9.12,0,0,1,0-1.91,13.26,13.26,0,0,0,.39-3.34l.5-.71,0-.12s-5.23-1.62-6.49-.18l-.15,0v.31c-.11.35.06.54-.1.5l.06-.5c-.07.36-.13.1-.21,0a2.22,2.22,0,0,1-.11.41c.05.08.06,0,.1-.1a1.33,1.33,0,0,1,.08.72c0,.37-.26,0-.31.44-.3,2.28-.65,4.49-.8,6.81-.07.05-.06,0-.08-.08,0,.7-.06,1.32,0,2a.55.55,0,0,1-.25.26A26.32,26.32,0,0,1,405.55,51Z"
     id="path65"
     inkscape:export-filename="/home/benutzer/Schreibtisch/path3755.png"
     inkscape:export-xdpi="96"
     inkscape:export-ydpi="96"
     style="fill:#ff000b;fill-opacity:1" />
  <path
     d="M425.09,94.84a1.33,1.33,0,0,0,.28-.75A1.12,1.12,0,0,0,425.09,94.84Z"
     id="path67"
     inkscape:export-filename="/home/benutzer/Schreibtisch/path3755.png"
     inkscape:export-xdpi="96"
     inkscape:export-ydpi="96" />
  <polygon
     points="425.38 94.08 425.38 94.08 425.38 94.09 425.38 94.08"
     id="polygon69"
     inkscape:export-filename="/home/benutzer/Schreibtisch/path3755.png"
     inkscape:export-xdpi="96"
     inkscape:export-ydpi="96" />
  <path
     d="M422.71,37.41l0,.24A1,1,0,0,0,422.71,37.41Z"
     id="path71"
     inkscape:export-filename="/home/benutzer/Schreibtisch/path3755.png"
     inkscape:export-xdpi="96"
     inkscape:export-ydpi="96" />
  <path
     d="M427,80.1l-.27-.06c0-.69.33-.18.3-.82-.38-.27.11-1-.08-1.28,0,0,.06-.3.19-.27-.21-.11,0-.32-.07-.52s-.07,0-.14.09l-.05-.45c.08-.17.21-.2.22,0,.16-1.17.73-6.75.71-8-.18.15-.09.54-.36.67-.12-.34.09-.48-.06-.64.39-.1.14-.72.54-.94l-.2-.11.14-.16c-.13-1.47-.09-.34,0-1.63,0-.74-.25-1.12-.12-1.53,0,.06-.15.22-.19,0,.19,0-.1-.52.1-.6,0-.19.06-.8-.21-.62.13-.09.22-.63.31-.3a1.23,1.23,0,0,0,0-.5l-.08.23c0-.62.23-.95,0-1.37l-.12.22c0-.37,0-.68.28-.81l.05.39a5.41,5.41,0,0,0-.05-1.52l0,.19c-.21-.68-.14-4.12-.41-4.75l-.22.26-.12-.53c0,.06.62.31.55.35.06-1.11.46-6.88.72-7.88.16-.4.33,0,.36,0,0-.51-.19-.24-.12-.66,0-.11.15,0,.17.11,0-.19.09-.35,0-.38-.1.23-.34.1-.51.18l.09-.54.15,0c0-.12-.39-.36-.24-.89.17-.89.26-1.87.41-2.77.09,0,.12.22.15.42a1,1,0,0,1,.1-.41c-.19.19-.06-.4-.15-.24-.3-.72.18-1.52,0-2.14-.33-.08-5.6-2.17-6-2.24a1.8,1.8,0,0,1,.11-.43c-.1,0-.2.4-.18.6l.21.07c0,.47-.14.09-.19.53-.18,0-.16-.42-.12-.78-.07.32-.25.63-.08.79-.12.29-.21-.07-.34.29a1.7,1.7,0,0,1,0,.92h0c-.29.7.11,1.15-.16,1.79l-.05-.08c-.13.22-.06.7-.22,1.11.05-.11.19-.2.18.06-.18.47-.11.82-.29,1.16l.13.36c-.26,1.69-.68,8.38-.78,10.07l0-.07c-.14,2.58-.56,7.86-.49,10.52a5.53,5.53,0,0,0-.28,1.39c.09-.23.21-.14.19,0-.11,1.3.11.1.09,1.42a81.8,81.8,0,0,1-.73,8.63,20.43,20.43,0,0,1,.06,2.34l0-.08c0,.77-.49,5-.46,5.91l0-.11c.1.77-.17.65-.3,1.24.29-.06.4.61.4.86h-.06a18.52,18.52,0,0,1,.18,1.88l-.15,0a8.73,8.73,0,0,1,0,1.87,13.66,13.66,0,0,0-.43,3.28l-.51.69,0,.11s5.21,1.73,6.48.32l.15,0V94c.11-.35-.05-.54.1-.5l-.06.5c.08-.36.13-.1.21,0a1.72,1.72,0,0,1,.12-.42c-.06-.07-.07,0-.11.1a1.24,1.24,0,0,1-.06-.72c.05-.37.25,0,.31-.43.33-2.29.69-4.5.83-6.81.07,0,.06,0,.09.08,0-.7.06-1.32,0-2a.56.56,0,0,1,.25-.26,7.19,7.19,0,0,1,0-1.72c0-.45,0-.9.08-1.25A5.39,5.39,0,0,1,427,80.1Z"
     id="path73"
     inkscape:export-filename="/home/benutzer/Schreibtisch/path3755.png"
     inkscape:export-xdpi="96"
     inkscape:export-ydpi="96"
     style="fill:#ff000b;fill-opacity:1" />
  <path
     d="M436.22,39.59a1.31,1.31,0,0,0-.21.76A1.09,1.09,0,0,0,436.22,39.59Z"
     id="path75"
     inkscape:export-filename="/home/benutzer/Schreibtisch/path3755.png"
     inkscape:export-xdpi="96"
     inkscape:export-ydpi="96" />
  <polygon
     points="436.01 40.36 436.01 40.36 436.01 40.35 436.01 40.36"
     id="polygon77"
     inkscape:export-filename="/home/benutzer/Schreibtisch/path3755.png"
     inkscape:export-xdpi="96"
     inkscape:export-ydpi="96" />
  <path
     d="M440.35,96.25V96A.65.65,0,0,0,440.35,96.25Z"
     id="path79"
     inkscape:export-filename="/home/benutzer/Schreibtisch/path3755.png"
     inkscape:export-xdpi="96"
     inkscape:export-ydpi="96" />
  <path
     d="M435.33,54.08l.28.05c0,.68-.33.19-.28.81.38.26-.09,1,.11,1.26,0,0-.05.3-.18.27.21.1,0,.32.09.51s.06,0,.13-.1l.06.45c-.08.17-.21.2-.22,0-.13,1.15-.65,6.67-.64,7.92.17-.15.09-.54.36-.67.12.34-.09.48,0,.64-.38.1-.14.71-.54.93l.21.11-.14.16c.12,1.46.09.33-.06,1.61,0,.75.25,1.12.11,1.53,0-.06.15-.22.19,0-.19,0,.1.52-.1.6,0,.19-.06.8.22.61-.14.1-.23.64-.32.3a1.47,1.47,0,0,0,0,.5l.09-.23c0,.62-.23,1,0,1.37l.12-.22c0,.37,0,.68-.29.81l0-.39a5.75,5.75,0,0,0,0,1.51l0-.18c.2.67.13,4.12.39,4.75l.22-.26.13.53c0-.06-.62-.3-.55-.35-.08,1.12-.42,6.93-.63,7.95-.15.41-.32.05-.35,0,0,.51.19.24.14.67-.05.11-.16,0-.18-.11,0,.19-.07.36,0,.38.09-.23.32-.11.49-.19l-.07.55-.15,0c0,.12.4.35.27.89-.14.91-.17,1.91-.28,2.83-.09,0-.13-.22-.16-.42a1,1,0,0,1-.09.43c.19-.21.08.39.16.22.33.71-.08,1.56.13,2.18.34.08,5.75,1.72,6.15,1.74a1.27,1.27,0,0,1-.08.42c.1,0,.17-.4.13-.59l-.21,0c0-.45.14-.1.16-.53.17,0,.18.39.17.74,0-.31.2-.61,0-.76.09-.29.21,0,.31-.3s-.18-.6-.05-.89h0c.24-.7-.19-1.11,0-1.74l.05.07c.12-.22,0-.68.16-1.09,0,.12-.18.21-.18,0,.15-.47.06-.8.23-1.14l-.15-.35c.17-1.65.47-8.23.59-9.91l0,.07c.13-2.55.57-7.8.52-10.46a5.53,5.53,0,0,0,.28-1.39c-.09.23-.2.14-.18,0,.11-1.3-.12-.09-.1-1.41,0-1.53.48-7.34.68-8.68a23.61,23.61,0,0,1-.12-2.36l.06.08c-.05-.77.33-5.1.24-6l0,.12c-.15-.78.13-.67.23-1.28-.29.07-.44-.6-.45-.85h.06c0-.38-.27-1.25-.31-1.88l.15,0a8.5,8.5,0,0,1-.1-1.9,12.17,12.17,0,0,0,.11-3.36l.44-.75,0-.11s-5.36-1.11-6.48.41l-.16,0,0,.3c-.08.35.1.52-.05.49v-.48c0,.36-.12.11-.21,0a1.24,1.24,0,0,1-.08.41c.06.07.06-.05.1-.1.05.19.2.45.13.69s-.25,0-.26.45c-.11,2.24-.3,4.41-.31,6.67-.07.05-.06,0-.09-.07.05.68,0,1.29.08,1.91a.65.65,0,0,1-.24.27,7.66,7.66,0,0,1,.06,1.68l0,1.23A4.26,4.26,0,0,1,435.33,54.08Z"
     id="path81"
     inkscape:export-filename="/home/benutzer/Schreibtisch/path3755.png"
     inkscape:export-xdpi="96"
     inkscape:export-ydpi="96"
     style="fill:#ff000b;fill-opacity:1" />
  <path
     class="cls-12"
     d="M450.29,43a2.39,2.39,0,0,0-1.07.3A2,2,0,0,0,450.29,43Z"
     id="path83"
     inkscape:export-filename="/home/benutzer/Schreibtisch/path3755.png"
     inkscape:export-xdpi="96"
     inkscape:export-ydpi="96" />
  <path
     class="cls-12"
     d="M449.21,43.29h0Z"
     id="path85"
     inkscape:export-filename="/home/benutzer/Schreibtisch/path3755.png"
     inkscape:export-xdpi="96"
     inkscape:export-ydpi="96" />
  <path
     class="cls-12"
     d="M381.42,84.78l.3-.15A1.68,1.68,0,0,0,381.42,84.78Z"
     id="path87"
     inkscape:export-filename="/home/benutzer/Schreibtisch/path3755.png"
     inkscape:export-xdpi="96"
     inkscape:export-ydpi="96" />
  <path
     class="cls-12"
     d="M431.4,51.85l.07.28c-.85.44-.39-.16-1.16.31-.13.51-1.33.63-1.51,1,0,0-.41.16-.44,0,0,.26-.37.25-.59.43-.07.1.09,0,.19,0l-.53.36c-.25.05-.36,0-.14-.18-1.5.68-8.65,4.07-10.19,5,.28,0,.72-.3,1-.17-.36.34-.64.27-.76.49-.33-.26-1,.38-1.45.2l0,.25-.26,0a6.41,6.41,0,0,1-2,1.08c-.94.49-1.26,1-1.83,1.15.08,0,.34,0,.12.14-.12-.14-.59.45-.8.34-.23.14-1,.5-.64.6-.19-.05-.91.24-.54-.06a2.31,2.31,0,0,0-.63.32l.33-.08c-.77.42-1.3.45-1.71.91l.34-.05c-.47.24-.86.45-1.16.31l.46-.3a10.61,10.61,0,0,0-1.85,1.07l.23-.11c-.72.65-5,2.93-5.66,3.59h.44l-.59.47c.08,0,0-.74.14-.71-1.42.7-8.8,4.32-10.19,4.79-.58.15-.22-.24-.23-.27-.62.37-.19.32-.76.56-.16,0,0-.16,0-.22-.23.13-.48.17-.46.26.33-.07.3.21.5.3l-.72.3,0-.15c-.16.06-.22.57-1,.81-1.21.47-2.47,1.11-3.68,1.61,0-.09.21-.26.44-.42a1.77,1.77,0,0,1-.57.2c.35,0-.46.33-.2.29-.72.74-2,.92-2.66,1.5.07.34.71,6.1.88,6.47a2.82,2.82,0,0,1-.58.2,1.47,1.47,0,0,0,.82-.27l0-.22c.55-.32.19.06.75-.2.1.15-.41.41-.86.63.42-.16.89-.23,1-.48.42-.11,0,.22.54.08a3.35,3.35,0,0,1,1.11-.63v0c1-.25,1.32-.88,2.24-1.1l-.07.1c.35,0,.88-.43,1.47-.58-.17,0-.36,0,0-.18.66-.18,1-.48,1.55-.56l.37-.36c2.19-.92,10.59-5.11,12.73-6.16l-.07.06c3.25-1.63,10-4.85,13.23-6.74a12.1,12.1,0,0,0,1.86-.72c-.33.08-.28-.08-.05-.19,1.66-.8.06-.16,1.7-1.06,1.86-1.09,9.27-4.63,11-5.37.8-.69,2-1.1,2.84-1.69l-.06.09c.92-.57,6.44-3.14,7.51-3.79l-.17,0c.9-.64.9-.33,1.7-.64-.23-.2.53-.77.83-.95l0,.06c.45-.29,1.42-1.06,2.19-1.5l0,.15a16.57,16.57,0,0,1,2.32-1.3,27.56,27.56,0,0,0,4.25-2l1.13-.07.12-.11s-.89-5.54-3.32-5.58l0-.16-.37.21c-.49.16-.62.43-.66.28l.63-.3c-.48.19-.19,0-.06-.21a3.09,3.09,0,0,1-.56.19c-.07.1.09,0,.18,0a2.66,2.66,0,0,1-.83.57c-.48.22-.15-.21-.7.05-2.94,1.35-5.81,2.62-8.69,4.14-.09,0,0-.06.06-.13-.85.51-1.63.88-2.4,1.35a.85.85,0,0,1-.45,0,15.36,15.36,0,0,1-2.1,1.2l-1.56.81Z"
     id="path89"
     style="fill:#ff000b;fill-opacity:1"
     inkscape:export-filename="/home/benutzer/Schreibtisch/path3755.png"
     inkscape:export-xdpi="96"
     inkscape:export-ydpi="96" />
  <path
     d="M 243.78906 26.279297 L 143.07031 73.550781 L 144.33984 90.279297 L 123.5 90.279297 L 123.5 104.09961 L 180.53516 104.09961 A 21.38 21.38 0 0 1 192.17969 100.66016 L 192.25 100.66016 A 21.41 21.41 0 0 1 203.99414 104.09961 L 224.11914 104.09961 L 224.11914 90.279297 L 168.4707 90.279297 L 168.4707 83.519531 L 161.93945 83.519531 L 236.00977 37.009766 L 246.25 72.419922 L 250.46094 72.759766 L 239.65039 34.720703 L 245.03906 31.359375 L 243.84961 26.539062 L 243.78906 26.279297 z M 192.18945 103.66016 A 18.4 18.4 0 0 0 188.24609 104.09961 L 196.25781 104.09961 A 18.49 18.49 0 0 0 192.25 103.66016 L 192.18945 103.66016 z "
     id="polygon91"
     inkscape:export-filename="/home/benutzer/Schreibtisch/path3755.png"
     inkscape:export-xdpi="96"
     inkscape:export-ydpi="96" />
  <path
     id="path3757-2"
     data-name="path3757"
     class="cls-13"
     d="M117.84,44.87l-.25,0L77.86,47.12,71.64,72.19l-26,6L43,110.29h-5.9v6l8,4.85H66.32a18.28,18.28,0,0,0,36.54,0H174c0,.08,0,.15,0,.23,0,9.76,8.24,17.66,18.34,17.62s18.28-8,18.24-17.73v-.12h19.11l8-4.85v-6H206.5a18.64,18.64,0,0,0-28.51,0H117.84Z"
     inkscape:export-filename="/home/benutzer/Schreibtisch/path3755.png"
     inkscape:export-xdpi="96"
     inkscape:export-ydpi="96" />
  <path
     class="cls-12"
     d="M48.8,159.27a.33.33,0,0,1,.18.11c.05.07,0,0,0-.08s0,.13,0,.1S48.86,159.26,48.8,159.27Z"
     id="path95"
     style="fill:#29ff29;fill-opacity:1"
     inkscape:export-filename="/home/benutzer/Schreibtisch/path3755.png"
     inkscape:export-xdpi="96"
     inkscape:export-ydpi="96" />
  <polygon
     class="cls-12"
     points="48.98 159.29 48.98 159.29 48.98 159.3 48.98 159.29"
     id="polygon97"
     style="fill:#29ff29;fill-opacity:1"
     inkscape:export-filename="/home/benutzer/Schreibtisch/path3755.png"
     inkscape:export-xdpi="96"
     inkscape:export-ydpi="96" />
  <path
     class="cls-12"
     d="M44.14,190.4l0-.13A.28.28,0,0,0,44.14,190.4Z"
     id="path99"
     style="fill:#29ff29;fill-opacity:1"
     inkscape:export-filename="/home/benutzer/Schreibtisch/path3755.png"
     inkscape:export-xdpi="96"
     inkscape:export-ydpi="96" />
  <path
     class="cls-12"
     d="M44.83,166,45,166c-.09.37-.25,0-.29.41.25.2-.16.57,0,.72,0,0-.07.16-.15.13.14.09,0,.18,0,.3s0,0,.11,0v.26c-.07.08-.16.09-.16,0-.2.63-1.11,3.65-1.22,4.36.14-.06.12-.3.31-.33.06.21-.1.26,0,.36-.28,0-.17.39-.47.46l.13.09-.11.06c-.05.84,0,.2-.19.9-.08.42.07.66-.07.87,0,0,.13-.1.14,0s0,.31-.13.32-.11.44.09.38c-.1,0-.22.32-.25.12a.58.58,0,0,0-.06.27l.08-.11c-.06.35-.25.49-.15.76l.11-.11c-.05.21-.08.38-.28.42v-.23a2.66,2.66,0,0,0-.12.86l0-.1c.08.4-.3,2.32-.17,2.71l.18-.11,0,.32s-.41-.26-.35-.28c-.16.61-1,3.81-1.21,4.34-.14.21-.23,0-.25,0,0,.29.11.16,0,.39,0,.06-.1,0-.11-.08s-.09.18,0,.21.24,0,.37,0l-.11.3-.1,0c0,.07.24.26.1.54-.2.48-.32,1-.49,1.53-.06,0-.07-.15-.08-.26,0,.06,0,.17-.1.22.15-.09,0,.23.09.15.15.45-.23.85-.15,1.23.22.09,3.79,1.91,4.07,2a.73.73,0,0,1-.1.23c.07,0,.16-.2.16-.32l-.15-.06c0-.26.11,0,.17-.27.13,0,.09.25,0,.45.07-.17.21-.32.1-.43.1-.15.14.06.25-.12s-.06-.37.07-.51h0c.24-.36,0-.66.22-1l0,0c.11-.1.09-.38.23-.59,0,.06-.15.09-.12,0s.13-.44.28-.61l-.06-.22c.3-.91,1.17-4.58,1.4-5.51v0c.33-1.43,1.13-4.32,1.34-5.83a2.47,2.47,0,0,0,.33-.74c-.09.12-.16.05-.13-.05.2-.71-.07-.07.07-.81a40.45,40.45,0,0,1,1.32-4.76c-.08-.44.18-.91.16-1.33l0,0c0-.44.76-2.78.81-3.29l0,.06c0-.45.17-.35.31-.68-.21,0-.24-.39-.22-.53h0a9.82,9.82,0,0,1,0-1.09l.11,0a4,4,0,0,1,.15-1.06l.31-.85a2.08,2.08,0,0,0,.08-.26,2.67,2.67,0,0,0,0-1.45,2.4,2.4,0,0,0-.76-1.2,2.26,2.26,0,0,0-1-.61,2.72,2.72,0,0,0-2.41.42,3.38,3.38,0,0,0-.35.44,2,2,0,0,0,0,.34,2.36,2.36,0,0,0,.18.9,1.2,1.2,0,0,0,.76.75.87.87,0,0,0,.79-.19c.18-.19.37-.39.54-.59l.24-.3.06-.08,0,0-.52.59,0,0s-.07,0,0,0,.2.16.17.12h0a.22.22,0,0,1,0-.13s0-.05,0,0h0l-.12.14h0s0,0,0,0h0l.13-.14h0a.1.1,0,0,0,0,0c0-.07,0-.06,0,0s0-.06,0,0l-.13.14h0a1,1,0,0,1-.53.1l-.42,0-.13,0-.23,0-.5-.08c-.59-.11-.38-.08-.43-.06l0,.12-.07.23-.14.45-.27.92c-.18.61-.35,1.22-.48,1.85-.05,0,0,0-.05-.05,0,.39-.14.72-.17,1.08a.36.36,0,0,1-.2.12A10.71,10.71,0,0,1,44.83,166Z"
     id="path101"
     style="fill:#29ff29;fill-opacity:1"
     inkscape:export-filename="/home/benutzer/Schreibtisch/path3755.png"
     inkscape:export-xdpi="96"
     inkscape:export-ydpi="96" />
  <path
     class="cls-12"
     d="M56.39,157.05c-.14.07-.19.23-.25.39A.55.55,0,0,0,56.39,157.05Z"
     id="path103"
     style="fill:#29ff29;fill-opacity:1"
     inkscape:export-filename="/home/benutzer/Schreibtisch/path3755.png"
     inkscape:export-xdpi="96"
     inkscape:export-ydpi="96" />
  <polygon
     class="cls-12"
     points="56.13 157.44 56.13 157.45 56.14 157.44 56.13 157.44"
     id="polygon105"
     style="fill:#29ff29;fill-opacity:1"
     inkscape:export-filename="/home/benutzer/Schreibtisch/path3755.png"
     inkscape:export-xdpi="96"
     inkscape:export-ydpi="96" />
  <path
     class="cls-12"
     d="M53.56,190.25a.78.78,0,0,1,0-.14A.68.68,0,0,0,53.56,190.25Z"
     id="path107"
     style="fill:#29ff29;fill-opacity:1"
     inkscape:export-filename="/home/benutzer/Schreibtisch/path3755.png"
     inkscape:export-xdpi="96"
     inkscape:export-ydpi="96" />
  <path
     class="cls-12"
     d="M53.85,165.23l.18.07c-.09.39-.25.06-.29.42.24.21-.17.59-.06.75,0,0-.07.16-.15.13.13.09,0,.19,0,.31s0,0,.1,0v.27c-.07.08-.16.08-.15,0-.22.65-1.15,3.77-1.25,4.5.14-.06.11-.3.31-.34,0,.21-.1.27,0,.38-.28,0-.16.39-.46.47l.13.09-.11.07c0,.86,0,.21-.19.93-.08.43.07.68-.06.9,0,0,.12-.11.13,0s0,.32-.12.34-.11.45.1.38c-.11,0-.22.34-.25.13,0,.11-.09.2-.07.29l.09-.12c-.06.36-.25.51-.15.78l.11-.11c0,.22-.07.4-.27.44V176a2.83,2.83,0,0,0-.1.89l0-.11c.08.42-.26,2.4-.12,2.8l.18-.12,0,.32s-.41-.25-.36-.27c-.14.63-.85,3.95-1.09,4.51-.13.22-.23,0-.25,0,0,.3.12.16,0,.4,0,.06-.1,0-.11-.08s-.08.2,0,.22.24,0,.36-.05l-.09.31-.1,0c0,.07.25.25.11.54-.17.51-.28,1.08-.43,1.6-.06,0-.07-.14-.08-.26,0,.07,0,.18-.1.23.15-.1,0,.24.1.15.16.45-.2.88-.1,1.27.23.08,3.88,1.73,4.16,1.8a.77.77,0,0,1-.09.23c.07,0,.16-.21.14-.33l-.14-.05c0-.27.1,0,.15-.29.13,0,.1.25.06.45.06-.17.2-.33.08-.43.09-.16.15,0,.25-.14s-.08-.37,0-.52h0c.23-.37,0-.67.18-1l0,0c.11-.11.08-.39.21-.61,0,.07-.14.1-.12,0s.11-.46.25-.63l-.07-.22c.26-.94,1-4.71,1.23-5.66v0c.29-1.46,1-4.42,1.24-5.95a2.32,2.32,0,0,0,.32-.76c-.08.12-.15.06-.12-.05.19-.73-.07-.07.06-.82a37.86,37.86,0,0,1,1.33-4.85c-.08-.45.18-.93.17-1.35l0,.05c0-.45.81-2.83.87-3.35l0,.06c0-.46.17-.35.32-.68-.21,0-.23-.4-.21-.55l0,0c0-.22,0-.75,0-1.11l.11,0a3.81,3.81,0,0,1,.18-1.08,6.09,6.09,0,0,0,.56-1.86l.41-.34,0-.07s-3.53-1.59-4.53-.93l-.11,0,0,.17c-.1.19,0,.32-.1.28l.08-.28c-.08.2-.1,0-.15-.05a.76.76,0,0,1-.11.22c0,.05,0,0,.08,0,0,.12.08.3,0,.42s-.17,0-.25.21c-.4,1.27-.83,2.48-1.13,3.79-.05,0,0,0-.05-.06,0,.4-.15.74-.19,1.11a.4.4,0,0,1-.2.12A12.56,12.56,0,0,1,53.85,165.23Z"
     id="path109"
     style="fill:#29ff29;fill-opacity:1"
     inkscape:export-filename="/home/benutzer/Schreibtisch/path3755.png"
     inkscape:export-xdpi="96"
     inkscape:export-ydpi="96" />
  <path
     class="cls-12"
     d="M39.17,170.29c.07.12.2.13.31.15A.33.33,0,0,0,39.17,170.29Z"
     id="path111"
     style="fill:#29ff29;fill-opacity:1"
     inkscape:export-filename="/home/benutzer/Schreibtisch/path3755.png"
     inkscape:export-xdpi="96"
     inkscape:export-ydpi="96" />
  <polygon
     class="cls-12"
     points="39.49 170.45 39.49 170.44 39.48 170.44 39.49 170.45"
     id="polygon113"
     style="fill:#29ff29;fill-opacity:1"
     inkscape:export-filename="/home/benutzer/Schreibtisch/path3755.png"
     inkscape:export-xdpi="96"
     inkscape:export-ydpi="96" />
  <path
     class="cls-12"
     d="M62.79,165.21h-.1A.12.12,0,0,0,62.79,165.21Z"
     id="path115"
     style="fill:#29ff29;fill-opacity:1"
     inkscape:export-filename="/home/benutzer/Schreibtisch/path3755.png"
     inkscape:export-xdpi="96"
     inkscape:export-ydpi="96" />
  <path
     class="cls-12"
     d="M45.3,170.84l0-.2c.29,0,.08.23.35.18.1-.28.43,0,.53-.12,0,0,.12,0,.11.12,0-.15.14,0,.22-.07s0-.05,0-.09l.18-.06c.08.05.09.14,0,.16a28.59,28.59,0,0,0,3.35.15c-.06-.12-.22,0-.28-.22.14-.1.2,0,.26-.07.05.27.31.06.41.34l0-.15.07.09c.61-.15.14-.08.68,0,.31,0,.46-.23.64-.15,0,0-.1-.1,0-.13,0,.13.21-.1.25,0,.08,0,.34,0,.25-.19,0,.1.27.14.14.21.07,0,.15,0,.21,0l-.1,0c.26,0,.4.11.57-.05l-.09-.07c.15,0,.28,0,.34.15l-.16.06a1.35,1.35,0,0,0,.64-.11h-.08c.28-.18,1.72-.32,2-.54l-.11-.14.22-.12s-.11.46-.13.41c.46,0,2.9-.1,3.33,0,.17.08,0,.22,0,.24.21,0,.09-.15.27-.13s0,.11,0,.13.15,0,.16,0-.06-.23-.1-.35l.23,0v.11s.13-.3.36-.24.8,0,1.19,0c0,.07-.09.11-.17.15a.29.29,0,0,1,.18,0c-.1-.11.16-.07.09-.12.28-.27.65,0,.9-.2,0-.25.52-4.19.52-4.48.08,0,.15,0,.18,0s-.18-.1-.26-.07v.16c-.18.05,0-.09-.22-.08,0-.13.15-.16.3-.17-.13,0-.26-.11-.32,0-.12-.05,0-.15-.13-.21s-.25.16-.37.08v0c-.3-.13-.45.19-.72.06l0,0c-.1-.08-.29,0-.46-.06.05,0,.09.12,0,.13s-.34,0-.48-.1l-.14.12c-.7,0-3.43.13-4.13.15l0,0c-1.06,0-3.24,0-4.33.19a1.33,1.33,0,0,0-.58-.13c.1,0,.06.14,0,.13-.53,0,0,.09-.58.13a19.23,19.23,0,0,1-3.58-.14c-.3.18-.68,0-1,.15l0,0c-.32.06-2.09-.12-2.46,0l0,0c-.33.11-.28-.09-.53-.15,0,.2-.25.32-.35.33v0a7.74,7.74,0,0,1-.78.23v-.11a2,2,0,0,1-.78.07,3.41,3.41,0,0,0-1.38-.1l-.3-.32-.05,0s-.62,3.82,0,4.63v.11h.12c.15,0,.22-.07.21,0l-.2,0c.15,0,0,.09,0,.16a.48.48,0,0,1,.17.05s0,0,0-.07.2-.14.29-.09,0,.18.19.2a26.54,26.54,0,0,0,2.83.21s0,0,0,.06c.29,0,.55,0,.82-.07a.35.35,0,0,1,.11.16A6,6,0,0,1,45.3,170.84Z"
     id="path117"
     style="fill:#29ff29;fill-opacity:1"
     inkscape:export-filename="/home/benutzer/Schreibtisch/path3755.png"
     inkscape:export-xdpi="96"
     inkscape:export-ydpi="96" />
  <path
     class="cls-12"
     d="M60.79,176.13c-.08-.13-.21-.14-.34-.17A.38.38,0,0,0,60.79,176.13Z"
     id="path119"
     style="fill:#29ff29;fill-opacity:1"
     inkscape:export-filename="/home/benutzer/Schreibtisch/path3755.png"
     inkscape:export-xdpi="96"
     inkscape:export-ydpi="96" />
  <polygon
     class="cls-12"
     points="60.45 175.96 60.45 175.96 60.45 175.97 60.45 175.96"
     id="polygon121"
     style="fill:#29ff29;fill-opacity:1"
     inkscape:export-filename="/home/benutzer/Schreibtisch/path3755.png"
     inkscape:export-xdpi="96"
     inkscape:export-ydpi="96" />
  <path
     class="cls-12"
     d="M35.79,180.55h.11A.21.21,0,0,0,35.79,180.55Z"
     id="path123"
     style="fill:#29ff29;fill-opacity:1"
     inkscape:export-filename="/home/benutzer/Schreibtisch/path3755.png"
     inkscape:export-xdpi="96"
     inkscape:export-ydpi="96" />
  <path
     class="cls-12"
     d="M54.35,175.41l0,.2c-.3,0-.08-.23-.36-.19-.12.28-.46,0-.56.1,0,0-.13,0-.12-.12,0,.15-.14,0-.23.07s0,0,0,.09l-.19.05c-.08-.05-.1-.14,0-.16a31.2,31.2,0,0,0-3.52-.24c.07.12.24,0,.3.23-.15.1-.21,0-.28.06,0-.27-.32-.07-.42-.35l0,.15-.07-.09c-.64.13-.14.07-.71,0-.33,0-.49.22-.67.14,0,0,.09.1,0,.13,0-.13-.23.09-.27,0s-.36,0-.27.17c0-.09-.28-.14-.14-.21-.08,0-.16,0-.22,0l.11.05c-.28,0-.42-.13-.61,0l.1.08c-.16,0-.3,0-.36-.17l.17-.05a1.63,1.63,0,0,0-.67.09h.08c-.29.17-1.81.27-2.08.49l.11.15-.23.11s.13-.46.15-.41c-.49,0-3,0-3.5-.09-.18-.08,0-.22,0-.25-.23.05-.11.15-.3.13s0-.11.05-.13-.16,0-.17,0,0,.23.09.35l-.24,0,0-.11c-.06,0-.15.3-.39.23-.4-.06-.84,0-1.25-.07,0-.07.1-.11.19-.14-.06,0-.14,0-.19,0,.09.12-.17.07-.1.12-.31.26-.68,0-.95.18,0,.24-.7,4.17-.71,4.46a.61.61,0,0,1-.19,0c0,.06.18.1.27.07l0-.16c.2-.05,0,.09.23.09,0,.13-.17.15-.32.16.13,0,.27.11.33,0,.13.05,0,.15.14.21s.26-.15.39-.07v0c.31.14.48-.18.77,0l0,0c.09.08.3,0,.48.07,0,0-.1-.12,0-.13s.36,0,.51.11l.15-.11c.73,0,3.63,0,4.37,0l0,0c1.12,0,3.43.06,4.59-.08a1.48,1.48,0,0,0,.61.15c-.1-.05-.06-.14,0-.13.57,0,0-.08.62-.12a21.32,21.32,0,0,1,3.78.25c.33-.17.72,0,1-.13l0,0c.33,0,2.21.18,2.6.13l-.05,0c.34-.1.29.09.55.16,0-.2.27-.31.38-.32v.05a5.24,5.24,0,0,1,.83-.21l0,.11a2.46,2.46,0,0,1,.83-.06,3.58,3.58,0,0,0,1.46.14l.31.33,0,0s.65-3.8,0-4.63l0-.11h-.13c-.16-.06-.24.07-.22,0l.21,0c-.16,0,0-.1,0-.16a.35.35,0,0,1-.18-.06s0,0,0,.07-.2.14-.31.08,0-.18-.19-.19a26.9,26.9,0,0,0-3-.29s0,0,0-.07c-.31,0-.58,0-.86.06a.37.37,0,0,1-.11-.17A6.73,6.73,0,0,1,54.35,175.41Z"
     id="path125"
     style="fill:#29ff29;fill-opacity:1"
     inkscape:export-filename="/home/benutzer/Schreibtisch/path3755.png"
     inkscape:export-xdpi="96"
     inkscape:export-ydpi="96" />
</svg>
