<?xml version="1.0" encoding="UTF-8" standalone="no"?>
<svg
   id="Ebene_1"
   data-name="Ebene 1"
   viewBox="0 0 340.15749 188.97636"
   version="1.1"
   sodipodi:docname="rollestattknolle pride edition.svg"
   inkscape:export-filename="/home/benutzer/projekte/verkehrswende/RolleStattKnolle/rollestattknolle-pride-edition.png"
   inkscape:export-xdpi="299.90399"
   inkscape:export-ydpi="299.90399"
   inkscape:version="1.1 (c4e8f9e, 2021-05-24)"
   width="9cm"
   height="5cm"
   xmlns:inkscape="http://www.inkscape.org/namespaces/inkscape"
   xmlns:sodipodi="http://sodipodi.sourceforge.net/DTD/sodipodi-0.dtd"
   xmlns="http://www.w3.org/2000/svg"
   xmlns:svg="http://www.w3.org/2000/svg"
   xmlns:rdf="http://www.w3.org/1999/02/22-rdf-syntax-ns#"
   xmlns:cc="http://creativecommons.org/ns#"
   xmlns:dc="http://purl.org/dc/elements/1.1/">
  <metadata
     id="metadata130">
    <rdf:RDF>
      <cc:Work
         rdf:about="">
        <dc:format>image/svg+xml</dc:format>
        <dc:type
           rdf:resource="http://purl.org/dc/dcmitype/StillImage" />
        <dc:title>Rolle</dc:title>
      </cc:Work>
    </rdf:RDF>
  </metadata>
  <sodipodi:namedview
     pagecolor="#ffffff"
     bordercolor="#666666"
     borderopacity="1"
     objecttolerance="10"
     gridtolerance="10"
     guidetolerance="10"
     inkscape:pageopacity="0"
     inkscape:pageshadow="2"
     inkscape:window-width="1920"
     inkscape:window-height="1023"
     id="namedview128"
     showgrid="false"
     inkscape:zoom="4.8658592"
     inkscape:cx="203.76669"
     inkscape:cy="108.61391"
     inkscape:window-x="0"
     inkscape:window-y="0"
     inkscape:window-maximized="1"
     inkscape:current-layer="Ebene_1"
     inkscape:pagecheckerboard="false"
     width="410.62289px"
     units="cm"
     inkscape:document-units="cm"
     inkscape:snap-text-baseline="false" />
  <defs
     id="defs4">
    <rect
       x="29.490267"
       y="212.00264"
       width="388.56689"
       height="39.551193"
       id="rect89870" />
    <rect
       x="81.695175"
       y="222.6115"
       width="386.30801"
       height="43.481239"
       id="rect34698" />
    <rect
       x="12.823971"
       y="2.2084355"
       width="438.88269"
       height="98.514404"
       id="rect42176" />
    <rect
       x="81.775131"
       y="2.3807359"
       width="226.86116"
       height="42.290272"
       id="rect20844" />
    <rect
       x="22.710974"
       y="5.056963"
       width="365.37567"
       height="37.676075"
       id="rect12808" />
    <rect
       x="27.793751"
       y="5.8925233"
       width="362.14624"
       height="58.847477"
       id="rect2666" />
    <style
       id="style2">.cls-1,.cls-12,.cls-2{fill:#ff00a0;}.cls-1,.cls-13{fill-rule:evenodd;}.cls-2{font-size:42px;font-family:BitstreamVeraSansMono-Bold, Bitstream Vera Sans Mono;font-weight:700;}.cls-3{letter-spacing:-0.1em;}.cls-4{letter-spacing:-0.14em;}.cls-5{letter-spacing:-0.06em;}.cls-6{letter-spacing:0.06em;}.cls-7{letter-spacing:-0.02em;}.cls-8{letter-spacing:-0.03em;}.cls-9{letter-spacing:0.04em;}.cls-10{letter-spacing:0.02em;}.cls-11{letter-spacing:-0.06em;}.cls-14{fill:#fff;}</style>
  </defs>
  <title
     id="title6">Rolle</title>
  <g
     id="path3755"
     style="fill:#008026;fill-opacity:1"
     transform="matrix(0.70476181,0,0,0.70476181,0.49598415,39.184424)">
    <path
       class="cls-1"
       d="m 246.24,72.42 -1,24 17.65,4.43 a 12,12 0 0 0 2.11,12.77 13.08,13.08 0 0 0 18,1.28 12.15,12.15 0 0 0 4.34,-8 l 60.95,15.86 c 0,0.13 0,0.27 -0.07,0.4 a 6.81,6.81 0 0 0 -0.16,0.86 2.2,2.2 0 0 0 0,0.36 c 0,0.32 -0.08,0.65 -0.1,1 a 13.28,13.28 0 0 0 13,13.57 13.79,13.79 0 0 0 8.48,-2.48 l 0.1,-0.07 a 0.71,0.71 0 0 0 0.14,-0.1 c 0,0 0.05,-0.05 0.08,-0.07 a 9.56,9.56 0 0 0 0.82,-0.6 12.17,12.17 0 0 0 4,-6.36 2.61,2.61 0 0 0 0.06,-0.27 l 17,4 12,-24.18 c 0,0 -10.88,-3.31 -32.2,-10 L 365,72.29 306.49,57.52 v 0 l -24.67,20 C 266.56,75 255.72,73.41 250.46,72.76 Z M 308.11,61.8 327,66.7 322.38,85.44 c -11.89,-2.73 -23.87,-5 -34.73,-6.9 z m 23.28,6.07 23.36,6 -0.39,19.84 c -7.92,-2.26 -16.52,-4.57 -25.79,-6.83 L 327,86.53 Z"
       id="path8"
       style="fill:#008026;fill-opacity:1" />
  </g>
  <path
     d="m 27.756169,141.0507 c 0.902096,0.0916 2.438477,0.0564 3.897334,0.0353 a 36.450281,36.450281 0 0 0 -3.897334,-0.0353 z"
     id="path43"
     style="stroke-width:0.704761" />
  <path
     d="M 31.681693,141.08592 Z"
     id="path45"
     style="stroke-width:0.704761" />
  <path
     d="m 314.74927,135.95526 -1.1981,0.0353 c 0.40172,-0.007 0.81047,-0.0141 1.1981,-0.0353 z"
     id="path47"
     style="stroke-width:0.704761" />
  <path
     d="m 99.438148,141.78301 0.22555,-0.19733 c 3.453312,0 1.000742,0.23257 4.228552,0.19029 1.25448,-0.27487 5.31391,0.0492 6.42038,-0.0916 a 10.113333,10.113333 0 0 1 1.44476,0.12686 17.759998,17.759998 0 0 1 2.59352,-0.0564 c 0.35944,-0.0422 -0.26077,-0.0493 -0.52856,-0.0916 l 2.26228,-0.0422 c 0.888,0.0564 1.10648,0.148 0.14095,0.15504 5.91999,0.0987 34.34303,0.45105 40.72114,0.41581 -0.81753,-0.11981 -2.81905,-0.0564 -3.52382,-0.23962 1.69143,-0.0846 2.48076,0.0564 3.22781,-0.0493 0.64133,0.27486 3.70704,0.0916 4.97562,0.37353 l 0.48629,-0.148 0.83867,0.0987 c 7.41409,-0.10571 1.69846,-0.0633 8.26684,0 3.80573,0 5.6381,-0.19734 7.75238,-0.10571 -0.31714,0 -1.15581,-0.0987 -0.16914,-0.13391 0.16914,0.13391 2.62876,-0.0776 3.10801,0.0634 0.96552,0 4.08762,0 3.03047,-0.16209 0.53562,0.0987 3.31943,0.15504 1.66323,0.21848 0.93734,0 1.85353,0.0492 2.53011,0 l -1.2122,-0.0634 c 3.17848,0 4.93333,0.15505 6.98419,0 l -1.17695,-0.0776 a 25.089521,25.089521 0 0 1 4.22857,0.17617 l -1.95925,0.0493 c 3.16439,0 5.07431,0 7.70306,-0.10571 h -0.98666 c 3.36876,-0.1762 20.86094,-0.48629 23.91961,-0.66247 l -1.40953,-0.14096 2.64285,-0.11276 c -0.31714,0 -1.27561,0.45105 -1.54342,0.40171 1.40952,0 4.32019,0 7.95677,0.0634 l 12.41085,0.26077 20.09276,0.39466 c 2.11429,0.10571 0.38057,0.22552 0.35943,0.24666 2.57942,0 1.11352,-0.12686 3.30532,-0.0915 0.59905,0 -0.12685,0.11277 -0.46513,0.12687 a 17.442855,17.442855 0 0 0 1.93104,0 c -1.20514,-0.0635 -0.70476,-0.23258 -1.1981,-0.34534 l 2.81905,0.0423 -0.12685,0.10571 a 34.639043,34.639043 0 0 1 4.36952,-0.19734 c 4.67962,0.0846 9.76096,0.0634 14.4617,0.0704 a 14.306665,14.306665 0 0 1 -2.05084,0.148 c 0.63428,0 1.59275,0 2.17771,0 -1.14172,-0.11276 1.97334,-0.0846 1.08534,-0.12685 3.43923,-0.28191 7.90741,-0.0846 10.94494,-0.31715 0.27487,-0.23962 6.42039,-4.26382 6.39923,-4.55981 0.93735,0 1.87468,-0.0422 2.15658,0 a 26.442663,26.442663 0 0 0 -3.0657,0 l -0.1621,0.16209 c -2.25525,0.11277 -0.53563,-0.0776 -2.73448,0 -0.11982,-0.11981 1.90286,-0.18323 3.6859,-0.25371 a 33.299997,33.299997 0 0 0 -3.85505,0.12686 c -1.51523,0 0.1621,-0.16209 -1.65618,-0.17619 -1.29677,0.0634 -2.99524,0.20439 -4.48934,0.15505 v 0 c -3.62248,-0.0846 -5.53942,0.24666 -8.85885,0.12685 l 0.35942,-0.0422 c -1.16989,-0.0634 -3.47447,0 -5.58876,-0.0423 0.6061,0 1.12762,0.11276 -0.14095,0.12685 -2.43142,-0.0776 -4.08762,0 -5.86361,-0.11981 l -1.70553,0.11276 c -4.22858,0 -14.70838,-0.11276 -25.18818,-0.28191 l -14.948,-0.2678 c -4.47525,-0.10572 -8.20344,-0.13391 -10.33887,-0.14096 h 0.33829 c -6.51904,-0.0353 -16.44209,0.10572 -26.37218,0.1762 H 175.7568 c -2.07199,-0.13391 -4.93334,-0.12687 -7.09695,-0.1762 1.20514,0.0564 0.78934,0.14096 -0.148,0.12687 -6.59657,-0.0564 -0.44399,0.0846 -7.11811,0.0846 -7.67484,0.0634 -37.05636,-0.2819 -43.86436,-0.4299 -3.66475,0.148 -8.23865,0 -11.83294,0.0846 l 0.36648,-0.0422 H 91.213573 c -6.497898,0 -13.073326,0 -15.31447,0.0634 h 0.599048 c -3.904378,0.14096 -3.375809,-0.0564 -6.455613,-0.0846 0.408762,0.19029 -2.938857,0.35238 -4.228571,0.38057 l 0.04933,-0.0422 c -1.924,0.0564 -6.286476,0.28894 -9.464951,0.37351 l 0.126857,-0.11276 c -2.649905,0.16209 -7.639618,0.21142 -9.542475,0.26076 -4.362475,0.0493 -11.085904,0 -16.914284,0.3242 l -3.770476,-0.19734 -0.549713,0.0422 c 0,0 -5.941142,3.94667 1.761904,4.51753 l -0.112762,0.11276 1.515237,-0.0564 c 1.825334,0 2.664,-0.14801 2.544191,-0.0353 l -2.501904,0.0564 c 1.83238,0 0.556762,0.0704 -0.140953,0.15505 0.768191,0 1.50819,0 2.114285,0 0.35943,-0.0564 -0.260761,-0.0422 -0.549713,-0.0564 0.986665,-0.0634 2.353905,-0.20438 3.523808,-0.19028 1.874666,-0.0353 0.126858,0.17619 2.311619,0.1339 11.536951,-0.21142 22.721521,-0.28896 34.378282,-0.444 0.267808,0.0422 -0.04933,0.0422 -0.387619,0.0634 l 9.866662,-0.16211 a 8.6897131,8.6897131 0 0 1 1.409523,0.14801 c -0.260763,-0.0422 4.158094,-0.0987 8.675618,-0.11981 h 6.27944 z"
     id="path49"
     style="fill:#004dff;fill-opacity:1;stroke-width:0.704761" />
  <path
     d="m 273.34341,46.752737 a 0.20402913,0.20402913 0 0 1 0.0773,0.04411 c 0,0 0,0 0,-0.04411 a 0.12682892,0.12682892 0 0 1 0,-0.0386 c 0,0 0,0 0,0 v 0 l -0.0495,0.09374 v 0 c 0,0 0,0 -0.0606,0.0386 a 0.27020074,0.27020074 0 0 0 0.0606,-0.04411 v 0 l 0.0495,-0.09374 v 0 c 0,0 0,0 0,0 a 0.15991472,0.15991472 0 0 0 0.0274,0.0772 0.22057203,0.22057203 0 0 0 -0.10478,-0.03309 z"
     id="path51"
     style="stroke-width:0.55143" />
  <polygon
     points="394.88,38.16 394.87,38.16 "
     id="polygon53"
     transform="matrix(0.55143008,0,0,0.55143008,55.528546,25.798394)" />
  <path
     d="M 273.40407,76.474821 V 76.36454 a 0.24262923,0.24262923 0 0 0 0,0.110281 z"
     id="path55"
     style="stroke-width:0.55143" />
  <path
     d="m 271.07151,54.031611 0.15441,0.03313 c 0,0.358427 -0.18197,0.09374 -0.15992,0.430116 0.20954,0.14337 -0.0551,0.551427 0.0496,0.678255 0,0 -0.0331,0.159919 -0.0993,0.143378 0.1158,0.05511 0,0.17094 0.0441,0.27571 0.0441,0.104775 0.033,-0.02755 0.0717,-0.05511 l 0.0274,0.242628 c -0.0441,0.08823 -0.1158,0.10477 -0.12131,0 -0.0718,0.617605 -0.39703,3.562241 -0.40255,4.229467 0.0993,-0.0772 0.0552,-0.28674 0.20404,-0.35291 0.0608,0.181969 -0.0496,0.25917 0.0274,0.34188 -0.21504,0.04961 -0.0827,0.380487 -0.30327,0.496293 l 0.11028,0.06068 -0.0773,0.08271 c 0.0551,0.777514 0.0441,0.176458 -0.0441,0.860233 0,0.397027 0.12682,0.601056 0.0495,0.816114 0,-0.03305 0.0827,-0.115799 0.10478,0 -0.10478,0 0.0495,0.281228 -0.0607,0.319828 0,0.10477 -0.0386,0.424604 0.1103,0.330857 -0.0717,0.04961 -0.13235,0.336376 -0.17646,0.1544 a 0.76648781,0.76648781 0 0 0 0,0.264687 l 0.0551,-0.121311 c 0,0.330857 -0.13786,0.501798 -0.0331,0.727885 l 0.0661,-0.115799 c 0,0.198517 0,0.363946 -0.1599,0.430116 l -0.0275,-0.209546 a 3.0494083,3.0494083 0 0 0 0,0.810602 v -0.09926 c 0.10477,0.363946 0,2.205723 0.1544,2.525558 l 0.12683,-0.132348 0.0551,0.281228 c 0,-0.03305 -0.33638,-0.176458 -0.29778,-0.198509 -0.0551,0.551426 -0.39151,3.683548 -0.55143,4.234975 -0.0883,0.220576 -0.17646,0 -0.19301,0 0,0.275716 0.0993,0.132347 0.0607,0.363945 -0.0275,0.06068 -0.0828,0 -0.0938,-0.06068 0,0.09926 -0.0495,0.193007 0,0.204029 0.0551,-0.12131 0.18196,-0.04961 0.2757,-0.09374 l -0.0441,0.297777 h -0.0882 c 0,0.06618 0.21505,0.193 0.13786,0.485257 -0.0993,0.490769 -0.12132,1.036689 -0.19301,1.544007 -0.0495,0 -0.0717,-0.121311 -0.0883,-0.2316 a 0.55143008,0.55143008 0 0 1 -0.0495,0.2316 c 0.0993,-0.115801 0.0441,0.220582 0.0883,0.126827 0.17646,0.391524 -0.0495,0.865759 0.0717,1.213149 0.0938,0 0.89331,0.242629 1.69841,0.435628 a 16.934419,16.934419 0 0 0 1.7315,0.352916 0.62311599,0.62311599 0 0 1 -0.0274,0.192999 c 0.0495,0 0.0773,-0.18748 0.0495,-0.27571 h -0.1158 c -0.0386,-0.209546 0.0661,-0.04412 0.0661,-0.253656 0.0993,0 0.1103,0.187486 0.12133,0.341886 0,-0.137859 0.0882,-0.286746 0,-0.352917 0.0495,-0.143369 0.12131,0 0.17094,-0.148888 0.0495,-0.148888 -0.11028,-0.292258 -0.0386,-0.435621 v 0 c 0.12133,-0.347405 -0.10476,-0.551432 0,-0.88229 l 0.0275,0.03862 c 0.0661,-0.115799 0,-0.352924 0.0938,-0.551434 0,0.06068 -0.0993,0.104769 -0.0993,0 0.0883,-0.242629 0.0441,-0.419094 0.14338,-0.590041 l -0.0773,-0.187481 c 0.0883,-0.882291 0.45218,-4.378361 0.55143,-5.266162 v 0.03313 c 0.13235,-1.411661 0.4246,-4.201898 0.41908,-5.646646 a 2.6082643,2.6082643 0 0 0 0.16545,-0.744432 c -0.0495,0.126828 -0.11029,0.0772 -0.0993,0 0.0717,-0.700314 -0.0607,-0.05511 -0.0386,-0.760974 0,-0.821624 0.31432,-3.93169 0.43012,-4.648552 a 12.203148,12.203148 0 0 1 -0.0495,-1.262771 l 0.033,0.03862 c 0,-0.408064 0.22057,-2.718554 0.18197,-3.198299 v 0.06617 c -0.0661,-0.419088 0.0827,-0.358431 0.14337,-0.683774 -0.15991,0.0386 -0.2316,-0.319831 -0.24262,-0.457687 h 0.0386 a 9.6389977,9.6389977 0 0 1 -0.14889,-1.009117 h 0.0828 a 4.5989267,4.5989267 0 0 1 -0.033,-1.014631 c 0.033,-0.226087 0.0718,-0.551431 0.11581,-0.83266 q 0,-0.242628 0.033,-0.479745 c 0,-0.08271 0,-0.165427 0,-0.242628 0,-0.0772 0,-0.215059 -0.0496,-0.463201 a 1.6542903,1.6542903 0 0 0 -0.29226,-1.036688 1.8803765,1.8803765 0 0 0 -0.27572,-0.325345 1.5715758,1.5715758 0 0 0 -0.47423,-0.319829 1.9686054,1.9686054 0 0 0 -1.41716,-0.07169 1.8086906,1.8086906 0 0 0 -0.50733,0.314314 1.6542903,1.6542903 0 0 0 -0.1544,0.920888 1.3289464,1.3289464 0 0 0 0.40805,0.904347 0.55143008,0.55143008 0 0 0 0.41358,0.143371 0.55143008,0.55143008 0 0 0 0.29228,-0.148885 c 0.11027,-0.170944 0.22056,-0.347402 0.31981,-0.523859 l 0.14338,-0.264688 v -0.06617 -0.03309 l -0.32535,0.551429 v 0 c -0.033,0.02757 0,0 0.0773,0.0386 0.0773,0.0386 0.0441,0.0386 0.0275,0 a 0.19300052,0.19300052 0 0 1 0,-0.0772 v 0 l -0.0495,0.09374 v 0 a 0.30328654,0.30328654 0 0 1 -0.0773,0.04962 2.2884349,2.2884349 0 0 1 -0.76097,0.110285 h 0.0661 l 0.33086,-0.02757 a 1.2682892,1.2682892 0 0 0 0.35843,-0.08271 0.74994487,0.74994487 0 0 1 -0.21506,0.06065 0.79405929,0.79405929 0 0 0 0.23711,-0.07168 1.9630911,1.9630911 0 0 1 -0.78854,0.121314 h 0.0274 c 0.1103,0 0.24264,0 0.30329,0 a 5.5143008,5.5143008 0 0 1 -0.55143,0 h -0.60105 a 0.18748623,0.18748623 0 0 1 0,0.04411 0.33085804,0.33085804 0 0 1 0,0.193002 c 0,0.192999 -0.13785,0 -0.1544,0.237115 -0.0938,1.207631 -0.22609,2.371149 -0.25918,3.58981 -0.0331,0 -0.0331,0 -0.0441,-0.04412 0,0.369459 0,0.694802 0,1.031175 a 0.29225795,0.29225795 0 0 1 -0.13235,0.137857 3.7276673,3.7276673 0 0 1 0,0.909859 c 0,0.231599 0,0.474233 -0.0274,0.656203 a 2.7571503,2.7571503 0 0 1 0.0441,0.308798 z"
     id="path57"
     style="stroke-width:0.55143;fill:#e40303;fill-opacity:1" />
  <path
     d="m 280.19217,45.787734 a 0.70031618,0.70031618 0 0 0 -0.1544,0.419087 0.63965889,0.63965889 0 0 0 0.1544,-0.419087 z"
     id="path59"
     style="stroke-width:0.55143" />
  <path
     d="M 280.03777,46.201307 Z"
     id="path61"
     style="stroke-width:0.55143" />
  <path
     d="m 281.75824,77.566652 v -0.13234 a 0.55143008,0.55143008 0 0 0 0,0.13234 z"
     id="path63"
     style="stroke-width:0.55143" />
  <path
     d="m 279.161,53.92133 0.1544,0.03862 c -0.0274,0.380487 -0.18749,0.09925 -0.17646,0.452169 0.20955,0.154398 -0.0661,0.579002 0.0386,0.711344 0,0 -0.0386,0.165429 -0.10476,0.148886 0.11579,0.06068 0,0.18197 0.033,0.29226 0.033,0.110287 0.0386,0 0.0773,-0.05511 v 0.25366 c -0.0441,0.09374 -0.1158,0.110281 -0.12131,0 -0.0938,0.645174 -0.45218,3.74972 -0.44666,4.450035 0.0938,-0.0827 0.0551,-0.30328 0.19851,-0.369458 0.0661,0.187489 -0.0496,0.270207 0.0274,0.358435 -0.21504,0.04961 -0.0827,0.397028 -0.30328,0.523857 l 0.1158,0.06068 -0.0827,0.08823 c 0.0606,0.821626 0.0496,0.187481 -0.0386,0.904344 0,0.419086 0.13234,0.634145 0.0552,0.860231 0,-0.03862 0.0828,-0.121316 0.10476,0 -0.10476,0 0.0552,0.29226 -0.0551,0.336371 0,0.104769 -0.033,0.446656 0.1158,0.341886 -0.0772,0.05511 -0.12682,0.358429 -0.17645,0.170948 a 0.81611651,0.81611651 0 0 0 0,0.275709 l 0.0496,-0.126829 c 0,0.347406 -0.13235,0.551433 0,0.766492 l 0.0661,-0.121317 c 0,0.209546 0,0.380486 -0.1599,0.452174 l -0.0275,-0.215058 a 3.3085804,3.3085804 0 0 0 0,0.849203 v -0.104769 c 0.1158,0.380487 0.0773,2.304973 0.22608,2.65789 l 0.12132,-0.148889 0.0717,0.297776 c 0,-0.03313 -0.3419,-0.165428 -0.3088,-0.192998 -0.0386,0.623113 -0.20402,3.860007 -0.32535,4.439005 -0.0773,0.226086 -0.17646,0 -0.193,0 0,0.286745 0.10478,0.132346 0.0773,0.369462 0,0.06618 -0.0827,0 -0.0938,-0.05511 0,0.104776 -0.0441,0.198517 0,0.209547 0.0495,-0.12683 0.18198,-0.06068 0.27572,-0.110288 l -0.0386,0.308798 h -0.0827 c 0,0.07169 0.22056,0.193005 0.14888,0.496293 -0.0773,0.507324 -0.0883,1.064269 -0.14888,1.577102 -0.0496,0 -0.0717,-0.121317 -0.0938,-0.231606 a 0.67274469,0.67274469 0 0 1 -0.0441,0.237117 c 0.0993,-0.115799 0.0386,0.220569 0.0882,0.126829 0.17644,0.39151 -0.0495,0.865743 0.0661,1.207623 0.18197,0.04412 3.16521,0.965009 3.38578,0.981551 a 0.73891626,0.73891626 0 0 1 -0.0441,0.237117 c 0.0551,0 0.0993,-0.220577 0.0773,-0.330864 l -0.12131,-0.03305 c 0,-0.248147 0.0773,-0.04961 0.0883,-0.292259 0.0993,0 0.0993,0.22057 0.0938,0.413568 0.0275,-0.17094 0.11029,-0.341887 0,-0.424597 0.0551,-0.165429 0.1158,0 0.17645,-0.170947 0.0608,-0.170941 -0.0992,-0.336369 -0.0274,-0.496287 v 0 c 0.13234,-0.391509 -0.0993,-0.623115 0.0274,-0.981536 l 0.0275,0.04412 c 0.0661,-0.121312 0,-0.380488 0.0883,-0.612086 0,0.06618 -0.0993,0.115799 -0.0993,0 0.0828,-0.264687 0.0386,-0.446665 0.12683,-0.639663 l -0.0827,-0.192998 c 0.0938,-0.926411 0.24814,-4.60445 0.30328,-5.514312 v 0.03862 c 0.0661,-1.422687 0.30328,-4.345271 0.28674,-5.8231 a 3.0549226,3.0549226 0 0 0 0.15992,-0.772003 c -0.0496,0.132348 -0.11581,0.08271 -0.10477,0 0.0717,-0.722374 -0.0606,-0.05511 -0.0441,-0.788545 a 45.592238,45.592238 0 0 1 0.47424,-4.797439 10.372399,10.372399 0 0 1 0,-1.30689 l 0.0275,0.04411 c 0,-0.424599 0.29778,-2.806777 0.28675,-3.308578 v 0.06065 c -0.0553,-0.435629 0.0938,-0.363943 0.16542,-0.694802 -0.15991,0.03309 -0.21504,-0.341885 -0.22057,-0.485257 h 0.0386 c 0,-0.215058 -0.11028,-0.700317 -0.10476,-1.053231 h 0.0827 a 5.0290423,5.0290423 0 0 1 0,-1.053233 7.311963,7.311963 0 0 0 0.21507,-1.841775 l 0.2757,-0.391517 v -0.06617 c 0,0 -2.88398,-0.893317 -3.57876,-0.09926 h -0.0828 v 0.170944 c -0.0607,0.193 0.033,0.297771 -0.0552,0.275715 l 0.033,-0.275715 c -0.0386,0.198514 -0.0717,0.05514 -0.1158,0 a 1.2241748,1.2241748 0 0 1 -0.0607,0.226086 c 0.0275,0.04411 0.0331,0 0.0551,-0.05514 a 0.733402,0.733402 0 0 1 0.0441,0.39703 c 0,0.20403 -0.14337,0 -0.17095,0.242629 -0.16543,1.257261 -0.35843,2.475921 -0.44113,3.755239 -0.0386,0.02757 -0.0331,0 -0.0441,-0.04412 0,0.386001 -0.033,0.727887 0,1.10286 a 0.30328654,0.30328654 0 0 1 -0.13786,0.143372 14.51364,14.51364 0 0 1 -0.0938,1.880378 z"
     id="path65"
     style="stroke-width:0.55143;fill:#ff8c00;fill-opacity:1" />
  <path
     d="m 289.93594,78.096027 a 0.733402,0.733402 0 0 0 0.15441,-0.413575 0.61760168,0.61760168 0 0 0 -0.15441,0.413575 z"
     id="path67"
     style="stroke-width:0.55143" />
  <polygon
     points="425.38,94.09 425.38,94.08 "
     id="polygon69"
     transform="matrix(0.55143008,0,0,0.55143008,55.528546,25.798394)" />
  <path
     d="m 288.62355,46.427393 v 0.132344 a 0.55143008,0.55143008 0 0 0 0,-0.132344 z"
     id="path71"
     style="stroke-width:0.55143" />
  <path
     d="m 290.98918,69.967939 -0.14889,-0.03305 c 0,-0.380488 0.18197,-0.09926 0.16544,-0.452176 -0.20955,-0.148888 0.0606,-0.551426 -0.0441,-0.705832 0,0 0.0331,-0.16543 0.10478,-0.148882 -0.1158,-0.06068 0,-0.176458 -0.0386,-0.286746 -0.0386,-0.11029 -0.0386,0 -0.0773,0.04961 l -0.0275,-0.248148 c 0.0441,-0.09373 0.11579,-0.110278 0.12131,0 0.0882,-0.645165 0.40254,-3.722148 0.39152,-4.411433 -0.0993,0.0827 -0.0496,0.297768 -0.19852,0.369457 -0.0661,-0.187488 0.0496,-0.264687 -0.0331,-0.352916 0.21506,-0.05511 0.0773,-0.397029 0.29779,-0.518346 l -0.1103,-0.06068 0.0773,-0.08823 c -0.0717,-0.810594 -0.0495,-0.18748 0,-0.898824 0,-0.408064 -0.13785,-0.617605 -0.0661,-0.843691 0,0.03313 -0.0827,0.121317 -0.10478,0 0.10478,0 -0.0551,-0.286747 0.0551,-0.330857 0,-0.104771 0.033,-0.441147 -0.11581,-0.341888 0.0717,-0.04961 0.12133,-0.347398 0.17096,-0.165428 a 0.67825899,0.67825899 0 0 0 0,-0.275717 l -0.0441,0.126829 c 0,-0.341888 0.12683,-0.523857 0,-0.755456 l -0.0661,0.121311 c 0,-0.204029 0,-0.374968 0.15442,-0.446658 l 0.0274,0.215058 a 2.9832367,2.9832367 0 0 0 -0.0274,-0.838173 v 0.10477 c -0.1158,-0.374968 -0.0773,-2.27189 -0.22609,-2.619289 l -0.12132,0.143369 -0.0661,-0.292256 c 0,0.03305 0.34189,0.170946 0.30328,0.192998 0.0331,-0.612085 0.25368,-3.793837 0.39704,-4.345266 0.0883,-0.220573 0.18197,0 0.19851,0 0,-0.28123 -0.10476,-0.132344 -0.0661,-0.363944 0,-0.06065 0.0827,0 0.0938,0.06065 0,-0.104772 0.0496,-0.193 0,-0.209543 -0.0551,0.126827 -0.18748,0.05514 -0.28122,0.09926 l 0.0495,-0.297773 h 0.0828 c 0,-0.06617 -0.21505,-0.198515 -0.13235,-0.490773 0.0938,-0.490773 0.14337,-1.031175 0.22608,-1.527461 0.0496,0 0.0661,0.121314 0.0827,0.2316 a 0.55143008,0.55143008 0 0 1 0.0553,-0.226086 c -0.10476,0.104772 -0.033,-0.220572 -0.0827,-0.132344 -0.16544,-0.397029 0.0992,-0.838174 0,-1.180059 -0.18198,-0.04412 -3.08801,-1.196605 -3.30859,-1.235205 a 0.99257416,0.99257416 0 0 1 0.0607,-0.237114 c -0.0551,0 -0.11028,0.220571 -0.0992,0.330858 l 0.1158,0.0386 c 0,0.259172 -0.0773,0.04962 -0.10478,0.292259 -0.0993,0 -0.0882,-0.231601 -0.0661,-0.430117 -0.0386,0.176458 -0.13786,0.347402 -0.0441,0.43563 -0.0661,0.159914 -0.11581,-0.0386 -0.18749,0.159914 a 0.9374311,0.9374311 0 0 1 0,0.507317 v 0 c -0.15991,0.386002 0.0607,0.634144 -0.0883,0.987059 l -0.0274,-0.04412 c -0.0717,0.121314 -0.033,0.386001 -0.12132,0.612087 0.0274,-0.06065 0.10477,-0.110286 0.0992,0.03309 -0.0992,0.259171 -0.0606,0.452174 -0.1599,0.639659 l 0.0717,0.198515 c -0.14337,0.931916 -0.37498,4.620982 -0.43012,5.552903 v -0.03862 c -0.0773,1.422688 -0.30879,4.334235 -0.27019,5.801041 a 3.0494083,3.0494083 0 0 0 -0.1544,0.766485 c 0.0496,-0.126829 0.1158,-0.0772 0.10477,0 -0.0607,0.716863 0.0606,0.05511 0.0495,0.783033 a 45.106979,45.106979 0 0 1 -0.40254,4.758841 11.265717,11.265717 0 0 1 0.0331,1.290347 v -0.04412 c 0,0.424605 -0.2702,2.757155 -0.25366,3.258952 v -0.06068 c 0.0552,0.424604 -0.0938,0.358434 -0.16543,0.683774 0.15991,-0.03305 0.22057,0.336375 0.22057,0.474235 h -0.0331 a 10.212485,10.212485 0 0 1 0.0993,1.036689 h -0.0828 a 4.8139846,4.8139846 0 0 1 0,1.031187 7.5325345,7.5325345 0 0 0 -0.23711,1.808678 l -0.28123,0.380487 v 0.06068 c 0,0 2.87294,0.953973 3.57327,0.176459 h 0.0828 v -0.170941 c 0.0606,-0.193006 -0.0275,-0.297776 0.0551,-0.275717 l -0.033,0.275717 c 0.0441,-0.198517 0.0717,-0.05511 0.1158,0 a 0.94845973,0.94845973 0 0 1 0.0661,-0.231606 c -0.033,-0.03862 -0.0386,0 -0.0606,0.05518 a 0.68377329,0.68377329 0 0 1 -0.033,-0.397034 c 0.0274,-0.204029 0.13785,0 0.17095,-0.23711 0.18196,-1.262779 0.38047,-2.481439 0.45768,-3.755247 0.0386,0 0.033,0 0.0495,0.04412 0,-0.385999 0.033,-0.727886 0,-1.102862 a 0.30880084,0.30880084 0 0 1 0.13786,-0.14337 3.9647822,3.9647822 0 0 1 0,-0.948461 c 0,-0.24814 0,-0.496286 0.0441,-0.689285 a 2.9722081,2.9722081 0 0 1 0.0606,-0.259177 z"
     id="path73"
     style="stroke-width:0.55143;fill:#ffed00;fill-opacity:1" />
  <path
     d="m 296.07337,47.629511 a 0.72237338,0.72237338 0 0 0 -0.11582,0.419086 0.60105878,0.60105878 0 0 0 0.11582,-0.419086 z"
     id="path75"
     style="stroke-width:0.55143" />
  <polygon
     points="436.01,40.35 436.01,40.36 "
     id="polygon77"
     transform="matrix(0.55143008,0,0,0.55143008,55.528546,25.798394)" />
  <path
     d="m 298.35076,78.873542 v -0.137859 a 0.35842956,0.35842956 0 0 0 0,0.137859 z"
     id="path79"
     style="stroke-width:0.55143" />
  <path
     d="m 295.58259,55.619729 0.1544,0.02755 c 0,0.374968 -0.18197,0.104769 -0.1544,0.446657 0.20954,0.14337 -0.0495,0.551426 0.0607,0.694804 0,0 -0.0275,0.165428 -0.0993,0.148881 0.1158,0.05518 0,0.176458 0.0495,0.281233 0.0495,0.104771 0.033,0 0.0717,-0.05511 l 0.033,0.248147 c -0.0441,0.09374 -0.1158,0.110281 -0.12131,0 -0.0717,0.634145 -0.35843,3.678039 -0.35292,4.367325 0.0938,-0.08271 0.0497,-0.297776 0.19851,-0.369458 0.0661,0.187487 -0.0495,0.264687 0,0.352916 -0.20954,0.05511 -0.0773,0.39151 -0.29777,0.512827 l 0.1158,0.06068 -0.0773,0.08823 c 0.0661,0.805084 0.0496,0.181969 -0.033,0.887802 0,0.413568 0.13785,0.617597 0.0607,0.843685 0,-0.03305 0.0827,-0.121311 0.10477,0 -0.10477,0 0.0551,0.286745 -0.0553,0.330856 0,0.104778 -0.033,0.441146 0.12132,0.336376 -0.0773,0.05511 -0.12683,0.352918 -0.17646,0.16543 a 0.81060223,0.81060223 0 0 0 0,0.275717 l 0.0495,-0.126829 c 0,0.341887 -0.12684,0.551427 0,0.755455 l 0.0661,-0.12131 c 0,0.204029 0,0.374969 -0.15992,0.446656 v -0.215058 a 3.1707229,3.1707229 0 0 0 0,0.832656 v -0.09925 c 0.11029,0.369457 0.0717,2.27189 0.21507,2.619289 l 0.12131,-0.14337 0.0718,0.292257 c 0,-0.03313 -0.3419,-0.165429 -0.30329,-0.192998 -0.0441,0.617596 -0.23161,3.821407 -0.34742,4.383864 -0.0827,0.226095 -0.17645,0.02755 -0.19299,0 0,0.281236 0.10478,0.132354 0.0773,0.369465 -0.0274,0.06068 -0.0883,0 -0.0992,-0.06068 0,0.104777 -0.0386,0.198517 0,0.209548 0.0495,-0.126829 0.17645,-0.06068 0.2702,-0.104771 l -0.0386,0.303288 h -0.0827 c 0,0.06618 0.22056,0.193007 0.14887,0.490774 -0.0773,0.501805 -0.0938,1.053226 -0.15439,1.56054 -0.0496,0 -0.0717,-0.12131 -0.0883,-0.231598 a 0.55143008,0.55143008 0 0 1 -0.0496,0.237117 c 0.10479,-0.115799 0.0441,0.215059 0.0883,0.121311 0.18198,0.391516 -0.0441,0.860232 0.0717,1.20212 0.18748,0.04411 3.17072,0.94846 3.39129,0.959489 a 0.70031618,0.70031618 0 0 1 -0.0441,0.2316 c 0.0552,0 0.0938,-0.220569 0.0717,-0.325347 h -0.11579 c 0,-0.248138 0.0773,-0.05511 0.0883,-0.292257 0.0938,0 0.0993,0.215057 0.0938,0.408057 0,-0.17094 0.11031,-0.33637 0,-0.419087 0.0496,-0.159911 0.11581,0 0.17096,-0.165428 0.0552,-0.165429 -0.0993,-0.330858 -0.0275,-0.490768 v 0 c 0.13235,-0.386005 -0.10477,-0.612092 0,-0.959491 l 0.0275,0.03862 c 0.0661,-0.121311 0,-0.374969 0.0882,-0.601056 0,0.06618 -0.0993,0.115799 -0.0993,0 0.0827,-0.259176 0.033,-0.441146 0.12683,-0.628634 l -0.0828,-0.192991 c 0.0938,-0.90987 0.25918,-4.538287 0.32536,-5.464688 v 0.03862 c 0.0717,-1.406147 0.31431,-4.301154 0.28673,-5.767952 a 3.0494083,3.0494083 0 0 0 0.15441,-0.766493 c -0.0497,0.126828 -0.1103,0.0772 -0.0993,0 0.0607,-0.716855 -0.0661,-0.04961 -0.0551,-0.777514 0,-0.843692 0.26468,-4.047496 0.37497,-4.786411 a 13.019263,13.019263 0 0 1 -0.0661,-1.301378 l 0.033,0.04412 c -0.0274,-0.424605 0.18197,-2.812296 0.13235,-3.308582 v 0.06618 c -0.0827,-0.430114 0.0717,-0.369458 0.12683,-0.705833 -0.15992,0.03862 -0.24263,-0.330854 -0.24815,-0.468713 h 0.033 c 0,-0.209543 -0.14888,-0.689286 -0.17094,-1.036687 h 0.0827 a 4.6871557,4.6871557 0 0 1 -0.0551,-1.047718 6.710904,6.710904 0 0 0 0.0607,-1.852805 l 0.24263,-0.413572 v -0.06065 c 0,0 -2.95566,-0.612088 -3.57327,0.226086 h -0.0882 v 0.165429 c -0.0441,0.193001 0.0551,0.286744 -0.0275,0.270202 v -0.264688 c 0,0.198516 -0.0661,0.06066 -0.11578,0 a 0.68377329,0.68377329 0 0 1 -0.0441,0.226087 c 0.0331,0.0386 0.0331,-0.02757 0.0552,-0.05514 0.0275,0.104771 0.11029,0.248144 0.0717,0.380487 -0.0386,0.132343 -0.13788,0 -0.14338,0.248143 -0.0607,1.235204 -0.16543,2.431806 -0.17095,3.678038 -0.0386,0.02755 -0.033,0 -0.0495,-0.03862 0.0274,0.374974 0,0.711345 0.0441,1.053232 a 0.35842956,0.35842956 0 0 1 -0.13234,0.148887 4.2239544,4.2239544 0 0 1 0.033,0.926403 v 0.678255 a 2.3490921,2.3490921 0 0 1 0.0274,0.2316 z"
     id="path81"
     style="stroke-width:0.55143;fill:#008026;fill-opacity:1" />
  <path
     class="cls-12"
     d="m 303.83198,49.509888 a 1.3179179,1.3179179 0 0 0 -0.59003,0.165427 1.1028602,1.1028602 0 0 0 0.59003,-0.165427 z"
     id="path83"
     style="stroke-width:0.55143" />
  <path
     class="cls-12"
     d="M 303.23645,49.669801 Z"
     id="path85"
     style="stroke-width:0.55143" />
  <path
     class="cls-12"
     d="m 265.85499,72.548635 0.16543,-0.08271 a 0.9264025,0.9264025 0 0 0 -0.16543,0.08271 z"
     id="path87"
     style="stroke-width:0.55143" />
  <path
     class="cls-12"
     d="m 293.41547,54.390046 0.0386,0.154399 c -0.46872,0.242629 -0.21507,-0.08823 -0.63966,0.17094 -0.0717,0.281229 -0.73341,0.347406 -0.83267,0.551434 0,0 -0.22608,0.08823 -0.24262,0 0,0.14337 -0.20405,0.137858 -0.32536,0.23711 -0.0386,0.05511 0.0496,0 0.10478,0 l -0.29225,0.198518 c -0.13787,0.02755 -0.19852,0 -0.0773,-0.09926 -0.82714,0.374976 -4.76986,2.244321 -5.61906,2.757148 0.15439,0 0.39703,-0.165428 0.55141,-0.09374 -0.19851,0.187488 -0.3529,0.148888 -0.41909,0.270198 -0.18196,-0.14337 -0.55141,0.209547 -0.79956,0.110288 v 0.137858 h -0.14337 a 3.5346668,3.5346668 0 0 1 -1.10286,0.595546 c -0.51834,0.270198 -0.6948,0.551426 -1.00911,0.634144 0.0441,0 0.18747,0 0.0661,0.07721 -0.0661,-0.07721 -0.32535,0.248139 -0.44115,0.187487 -0.12683,0.0772 -0.55144,0.275711 -0.35292,0.330859 -0.10476,-0.02755 -0.50179,0.132339 -0.29776,-0.03305 a 1.2738034,1.2738034 0 0 0 -0.34742,0.176458 l 0.18198,-0.04412 c -0.42461,0.231598 -0.71686,0.248138 -0.94294,0.501797 l 0.18747,-0.02755 c -0.25916,0.13234 -0.47423,0.24814 -0.63964,0.170941 l 0.25365,-0.165429 a 5.8506732,5.8506732 0 0 0 -1.02015,0.590034 l 0.12684,-0.06068 c -0.39703,0.358428 -2.75716,1.615688 -3.1211,1.979633 h 0.24262 l -0.32534,0.259177 c 0.0441,0 0,-0.408064 0.0773,-0.391516 -0.78304,0.385999 -4.85259,2.382173 -5.61908,2.64135 -0.31983,0.0827 -0.12131,-0.132348 -0.12683,-0.14889 -0.34189,0.204029 -0.10478,0.176458 -0.41909,0.308799 -0.0883,0 0,-0.08822 0,-0.121309 -0.12682,0.07169 -0.26467,0.09374 -0.25365,0.143369 0.18197,-0.03862 0.16543,0.115799 0.27571,0.165428 l -0.39704,0.165428 v -0.0827 c -0.0882,0.03305 -0.12129,0.314318 -0.55141,0.446658 -0.66724,0.259169 -1.36205,0.612085 -2.02927,0.887803 0,-0.04961 0.1158,-0.143371 0.24263,-0.231599 a 0.97603131,0.97603131 0 0 1 -0.31432,0.110281 c 0.19302,0 -0.25365,0.181976 -0.11027,0.159917 -0.39704,0.408056 -1.10287,0.507316 -1.46681,0.827143 0.0386,0.187487 0.39151,3.363721 0.48526,3.567751 a 1.5550328,1.5550328 0 0 1 -0.31984,0.110288 0.81060223,0.81060223 0 0 0 0.45218,-0.148888 v -0.121311 c 0.30329,-0.176458 0.10477,0.03305 0.41357,-0.110289 0.0552,0.08271 -0.22609,0.226089 -0.47423,0.347405 0.23159,-0.08823 0.49078,-0.126828 0.55143,-0.264687 0.23161,-0.06068 0,0.121311 0.29777,0.04412 a 1.8472908,1.8472908 0 0 1 0.61209,-0.347398 v 0 c 0.55144,-0.137857 0.72788,-0.485256 1.2352,-0.606574 l -0.0386,0.05511 c 0.193,0 0.48526,-0.237109 0.8106,-0.319827 -0.0938,0 -0.19851,0 0,-0.09926 0.36395,-0.09926 0.55144,-0.264688 0.85472,-0.308799 l 0.20404,-0.198518 c 1.20762,-0.507314 5.83964,-2.817805 7.01969,-3.396802 l -0.0386,0.03305 c 1.79214,-0.898831 5.5143,-2.674437 7.29542,-3.71664 a 6.6723039,6.6723039 0 0 0 1.02566,-0.397027 c -0.18197,0.04411 -0.15441,-0.04412 -0.0274,-0.10477 0.91537,-0.441145 0.033,-0.08823 0.93743,-0.584515 1.02567,-0.601063 5.11175,-2.553126 6.06573,-2.961183 0.44116,-0.380488 1.10286,-0.606575 1.56606,-0.931915 l -0.033,0.04961 c 0.50731,-0.314317 3.55121,-1.731494 4.14124,-2.089922 h -0.0938 c 0.49628,-0.352916 0.49628,-0.181969 0.93744,-0.352916 -0.12684,-0.110289 0.29225,-0.424599 0.45767,-0.523857 v 0.03305 c 0.24815,-0.159911 0.78302,-0.584516 1.20764,-0.827145 v 0.08271 a 9.1371961,9.1371961 0 0 1 1.27931,-0.716863 15.197412,15.197412 0 0 0 2.34358,-1.10286 l 0.62313,-0.03862 0.0661,-0.06068 c 0,0 -0.49078,-3.054926 -1.83075,-3.076983 v -0.08823 l -0.20403,0.115799 c -0.27019,0.08823 -0.34189,0.237115 -0.36394,0.1544 l 0.3474,-0.165429 c -0.2647,0.104772 -0.10477,0 -0.0331,-0.115801 a 1.7039189,1.7039189 0 0 1 -0.30879,0.104772 c -0.0386,0.05514 0.0495,0 0.0992,0 a 1.466804,1.466804 0 0 1 -0.45767,0.314315 c -0.26471,0.121316 -0.0828,-0.1158 -0.38602,0.02756 -1.6212,0.744431 -3.2038,1.444747 -4.79192,2.282921 -0.0496,0 0,-0.03309 0.033,-0.07169 -0.46871,0.281232 -0.89884,0.485262 -1.32343,0.74443 a 0.46871557,0.46871557 0 0 1 -0.24814,0 8.4699656,8.4699656 0 0 1 -1.15801,0.661723 l -0.86022,0.446656 z"
     id="path89"
     style="fill:#004dff;stroke-width:0.55143;fill-opacity:1" />
  <path
     d="m 172.30919,57.705065 -70.98271,33.315147 0.89472,11.789608 H 87.534063 v 9.74003 h 40.196197 a 15.067808,15.067808 0 0 1 8.20661,-2.42399 h 0.0494 a 15.088951,15.088951 0 0 1 8.27682,2.42399 h 14.18334 v -9.74003 h -39.21889 v -4.764031 h -4.60297 l 52.20192,-32.778299 7.21692,24.955733 2.96771,0.239507 -7.61885,-26.808483 3.79772,-2.368936 -0.83828,-3.39717 z m -36.36543,54.535075 a 12.967618,12.967618 0 0 0 -2.77913,0.30971 h 5.64635 a 13.031046,13.031046 0 0 0 -2.82454,-0.30971 z"
     id="polygon91"
     style="fill:#ff8c00;stroke-width:0.704761;fill-opacity:1" />
  <path
     id="path3757-2"
     data-name="path3757"
     class="cls-13"
     d="m 83.545111,70.807084 h -0.17619 l -28.000183,1.585714 -4.38362,17.668386 -18.323806,4.228574 -1.860571,22.622832 h -4.158094 v 4.22859 l 5.638095,3.41809 h 14.955044 a 12.883046,12.883046 0 0 0 25.751997,0 h 50.136747 c 0,0.0564 0,0.10571 0,0.16209 0,6.87847 5.80723,12.4461 12.92533,12.4179 7.11809,-0.0282 12.88304,-5.6381 12.85486,-12.49543 v -0.0846 h 13.468 l 5.6381,-3.41808 v -4.22859 h -21.98154 a 13.136761,13.136761 0 0 0 -20.09276,0 H 83.545111 Z"
     style="fill:#e30303;stroke-width:0.704761;fill-opacity:1" />
  <g
     id="g73367"
     transform="matrix(0.67271209,0,0,0.67271209,21.560874,28.76504)"
     style="fill:#e40303;fill-opacity:1">
    <text
       class="cls-2"
       id="text41"
       style="font-style:normal;font-variant:normal;font-weight:bold;font-stretch:normal;font-family:Kanit;-inkscape-font-specification:'Kanit Bold';letter-spacing:0.0207717px;fill:#e40303;fill-opacity:1"
       x="35.032047"
       y="212.22171" />
    <g
       id="g73332"
       style="fill:#e40303;fill-opacity:1">
      <path
         class="cls-12"
         d="m 15.562046,183.07171 a 0.33,0.33 0 0 1 0.18,0.11 c 0.05,0.07 0,0 0,-0.08 0,-0.08 0,0.13 0,0.1 0,-0.03 -0.12,-0.14 -0.18,-0.13 z"
         id="path95"
         style="fill:#e40303;fill-opacity:1" />
      <polygon
         class="cls-12"
         points="48.98,159.29 48.98,159.3 "
         id="polygon97"
         transform="translate(-33.237954,23.801709)"
         style="fill:#e40303;fill-opacity:1" />
      <path
         class="cls-12"
         d="m 10.902046,214.20171 v -0.13 a 0.28,0.28 0 0 0 0,0.13 z"
         id="path99"
         style="fill:#e40303;fill-opacity:1" />
      <path
         class="cls-12"
         d="m 11.592046,189.80171 h 0.17 c -0.09,0.37 -0.25,0 -0.29,0.41 0.25,0.2 -0.16,0.57 0,0.72 0,0 -0.07,0.16 -0.15,0.13 0.14,0.09 0,0.18 0,0.3 0,0.12 0,0 0.11,0 v 0.26 c -0.07,0.08 -0.16,0.09 -0.16,0 -0.2,0.63 -1.11,3.65 -1.22,4.36 0.14,-0.06 0.12,-0.3 0.31,-0.33 0.06,0.21 -0.1,0.26 0,0.36 -0.28,0 -0.17,0.39 -0.4699997,0.46 l 0.1299997,0.09 -0.1099997,0.06 c -0.05,0.84 0,0.2 -0.19,0.9 -0.08,0.42 0.07,0.66 -0.07,0.87 0,0 0.13,-0.1 0.14,0 0.01,0.1 0,0.31 -0.13,0.32 -0.13,0.01 -0.11,0.44 0.09,0.38 -0.1,0 -0.22,0.32 -0.25,0.12 a 0.58,0.58 0 0 0 -0.06,0.27 l 0.08,-0.11 c -0.06,0.35 -0.25,0.49 -0.15,0.76 l 0.11,-0.11 c -0.05,0.21 -0.08,0.38 -0.28,0.42 v -0.23 a 2.66,2.66 0 0 0 -0.12,0.86 v -0.1 c 0.08,0.4 -0.3,2.32 -0.17,2.71 l 0.18,-0.11 v 0.32 c 0,0 -0.41,-0.26 -0.35,-0.28 -0.16,0.61 -1,3.81 -1.21,4.34 -0.14,0.21 -0.23,0 -0.25,0 0,0.29 0.11,0.16 0,0.39 0,0.06 -0.1,0 -0.11,-0.08 -0.01,-0.08 -0.09,0.18 0,0.21 0.09,0.03 0.24,0 0.37,0 l -0.11,0.3 h -0.1 c 0,0.07 0.24,0.26 0.1,0.54 -0.2,0.48 -0.32,1 -0.49,1.53 -0.06,0 -0.07,-0.15 -0.08,-0.26 0,0.06 0,0.17 -0.1,0.22 0.15,-0.09 0,0.23 0.09,0.15 0.15,0.45 -0.23,0.85 -0.15,1.23 0.22,0.09 3.7899997,1.91 4.0699997,2 a 0.73,0.73 0 0 1 -0.1,0.23 c 0.07,0 0.16,-0.2 0.16,-0.32 l -0.15,-0.06 c 0,-0.26 0.11,0 0.17,-0.27 0.13,0 0.09,0.25 0,0.45 0.07,-0.17 0.21,-0.32 0.1,-0.43 0.1,-0.15 0.14,0.06 0.25,-0.12 0.11,-0.18 -0.06,-0.37 0.07,-0.51 v 0 c 0.24,-0.36 0,-0.66 0.22,-1 v 0 c 0.11,-0.1 0.09,-0.38 0.23,-0.59 0,0.06 -0.15,0.09 -0.12,0 0.03,-0.09 0.13,-0.44 0.28,-0.61 l -0.06,-0.22 c 0.3,-0.91 1.17,-4.58 1.4,-5.51 v 0 c 0.33,-1.43 1.13,-4.32 1.34,-5.83 a 2.47,2.47 0 0 0 0.33,-0.74 c -0.09,0.12 -0.16,0.05 -0.13,-0.05 0.2,-0.71 -0.07,-0.07 0.07,-0.81 a 40.45,40.45 0 0 1 1.32,-4.76 c -0.08,-0.44 0.18,-0.91 0.16,-1.33 v 0 c 0,-0.44 0.76,-2.78 0.81,-3.29 v 0.06 c 0,-0.45 0.17,-0.35 0.31,-0.68 -0.21,0 -0.24,-0.39 -0.22,-0.53 v 0 a 9.82,9.82 0 0 1 0,-1.09 h 0.11 a 4,4 0 0 1 0.15,-1.06 l 0.31,-0.85 a 2.08,2.08 0 0 0 0.08,-0.26 2.67,2.67 0 0 0 0,-1.45 2.4,2.4 0 0 0 -0.76,-1.2 2.26,2.26 0 0 0 -1,-0.61 2.72,2.72 0 0 0 -2.41,0.42 3.38,3.38 0 0 0 -0.35,0.44 2,2 0 0 0 0,0.34 2.36,2.36 0 0 0 0.18,0.9 1.2,1.2 0 0 0 0.76,0.75 0.87,0.87 0 0 0 0.79,-0.19 c 0.18,-0.19 0.37,-0.39 0.54,-0.59 l 0.24,-0.3 0.06,-0.08 v 0 l -0.52,0.59 v 0 c 0,0 -0.07,0 0,0 0.07,0 0.2,0.16 0.17,0.12 v 0 a 0.22,0.22 0 0 1 0,-0.13 c 0,0 0,-0.05 0,0 v 0 l -0.12,0.14 v 0 c 0,0 0,0 0,0 v 0 l 0.13,-0.14 v 0 c 0,-0.07 0,-0.06 0,0 0,0.06 0,-0.06 0,0 l -0.13,0.14 v 0 a 1,1 0 0 1 -0.53,0.1 h -0.42 -0.13 -0.23 l -0.5,-0.08 c -0.59,-0.11 -0.38,-0.08 -0.43,-0.06 v 0.12 l -0.07,0.23 -0.14,0.45 -0.27,0.92 c -0.18,0.61 -0.35,1.22 -0.48,1.85 -0.05,0 0,0 -0.05,-0.05 0,0.39 -0.14,0.72 -0.17,1.08 a 0.36,0.36 0 0 1 -0.2,0.12 10.71,10.71 0 0 1 -0.23,1.97 z"
         id="path101"
         style="fill:#e40303;fill-opacity:1" />
      <path
         class="cls-12"
         d="m 23.152046,180.85171 c -0.14,0.07 -0.19,0.23 -0.25,0.39 a 0.55,0.55 0 0 0 0.25,-0.39 z"
         id="path103"
         style="fill:#e40303;fill-opacity:1" />
      <polygon
         class="cls-12"
         points="56.13,157.44 56.13,157.45 56.14,157.44 "
         id="polygon105"
         transform="translate(-33.237954,23.801709)"
         style="fill:#e40303;fill-opacity:1" />
      <path
         class="cls-12"
         d="m 20.322046,214.05171 a 0.78,0.78 0 0 1 0,-0.14 0.68,0.68 0 0 0 0,0.14 z"
         id="path107"
         style="fill:#e40303;fill-opacity:1" />
      <path
         class="cls-12"
         d="m 20.612046,189.03171 0.18,0.07 c -0.09,0.39 -0.25,0.06 -0.29,0.42 0.24,0.21 -0.17,0.59 -0.06,0.75 0,0 -0.07,0.16 -0.15,0.13 0.13,0.09 0,0.19 0,0.31 0,0.12 0,0 0.1,0 v 0.27 c -0.07,0.08 -0.16,0.08 -0.15,0 -0.22,0.65 -1.15,3.77 -1.25,4.5 0.14,-0.06 0.11,-0.3 0.31,-0.34 0,0.21 -0.1,0.27 0,0.38 -0.28,0 -0.16,0.39 -0.46,0.47 l 0.13,0.09 -0.11,0.07 c 0,0.86 0,0.21 -0.19,0.93 -0.08,0.43 0.07,0.68 -0.06,0.9 0,0 0.12,-0.11 0.13,0 0.01,0.11 0,0.32 -0.12,0.34 -0.12,0.02 -0.11,0.45 0.1,0.38 -0.11,0 -0.22,0.34 -0.25,0.13 0,0.11 -0.09,0.2 -0.07,0.29 l 0.09,-0.12 c -0.06,0.36 -0.25,0.51 -0.15,0.78 l 0.11,-0.11 c 0,0.22 -0.07,0.4 -0.27,0.44 v -0.31 a 2.83,2.83 0 0 0 -0.1,0.89 v -0.11 c 0.08,0.42 -0.26,2.4 -0.12,2.8 l 0.18,-0.12 v 0.32 c 0,0 -0.41,-0.25 -0.36,-0.27 -0.14,0.63 -0.85,3.95 -1.09,4.51 -0.13,0.22 -0.23,0 -0.25,0 0,0.3 0.12,0.16 0,0.4 0,0.06 -0.1,0 -0.11,-0.08 -0.01,-0.08 -0.08,0.2 0,0.22 0.08,0.02 0.24,0 0.36,-0.05 l -0.09,0.31 h -0.1 c 0,0.07 0.25,0.25 0.11,0.54 -0.17,0.51 -0.28,1.08 -0.43,1.6 -0.06,0 -0.07,-0.14 -0.08,-0.26 0,0.07 0,0.18 -0.1,0.23 0.15,-0.1 0,0.24 0.1,0.15 0.16,0.45 -0.2,0.88 -0.1,1.27 0.23,0.08 3.88,1.73 4.16,1.8 a 0.77,0.77 0 0 1 -0.09,0.23 c 0.07,0 0.16,-0.21 0.14,-0.33 l -0.14,-0.05 c 0,-0.27 0.1,0 0.15,-0.29 0.13,0 0.1,0.25 0.06,0.45 0.06,-0.17 0.2,-0.33 0.08,-0.43 0.09,-0.16 0.15,0 0.25,-0.14 0.1,-0.14 -0.08,-0.37 0,-0.52 v 0 c 0.23,-0.37 0,-0.67 0.18,-1 v 0 c 0.11,-0.11 0.08,-0.39 0.21,-0.61 0,0.07 -0.14,0.1 -0.12,0 0.02,-0.1 0.11,-0.46 0.25,-0.63 l -0.07,-0.22 c 0.26,-0.94 1,-4.71 1.23,-5.66 v 0 c 0.29,-1.46 1,-4.42 1.24,-5.95 a 2.32,2.32 0 0 0 0.32,-0.76 c -0.08,0.12 -0.15,0.06 -0.12,-0.05 0.19,-0.73 -0.07,-0.07 0.06,-0.82 a 37.86,37.86 0 0 1 1.33,-4.85 c -0.08,-0.45 0.18,-0.93 0.17,-1.35 v 0.05 c 0,-0.45 0.81,-2.83 0.87,-3.35 v 0.06 c 0,-0.46 0.17,-0.35 0.32,-0.68 -0.21,0 -0.23,-0.4 -0.21,-0.55 v 0 c 0,-0.22 0,-0.75 0,-1.11 h 0.11 a 3.81,3.81 0 0 1 0.18,-1.08 6.09,6.09 0 0 0 0.56,-1.86 l 0.41,-0.34 v -0.07 c 0,0 -3.53,-1.59 -4.53,-0.93 h -0.11 v 0.17 c -0.1,0.19 0,0.32 -0.1,0.28 l 0.08,-0.28 c -0.08,0.2 -0.1,0 -0.15,-0.05 a 0.76,0.76 0 0 1 -0.11,0.22 c 0,0.05 0,0 0.08,0 0,0.12 0.08,0.3 0,0.42 -0.08,0.12 -0.17,0 -0.25,0.21 -0.4,1.27 -0.83,2.48 -1.13,3.79 -0.05,0 0,0 -0.05,-0.06 0,0.4 -0.15,0.74 -0.19,1.11 a 0.4,0.4 0 0 1 -0.2,0.12 12.56,12.56 0 0 1 -0.26,1.99 z"
         id="path109"
         style="fill:#e40303;fill-opacity:1" />
      <path
         class="cls-12"
         d="m 5.9320463,194.09171 c 0.07,0.12 0.2,0.13 0.31,0.15 a 0.33,0.33 0 0 0 -0.31,-0.15 z"
         id="path111"
         style="fill:#e40303;fill-opacity:1" />
      <polygon
         class="cls-12"
         points="39.49,170.45 39.49,170.44 39.48,170.44 "
         id="polygon113"
         transform="translate(-33.237954,23.801709)"
         style="fill:#e40303;fill-opacity:1" />
      <path
         class="cls-12"
         d="m 29.552046,189.01171 h -0.1 a 0.12,0.12 0 0 0 0.1,0 z"
         id="path115"
         style="fill:#e40303;fill-opacity:1" />
      <path
         class="cls-12"
         d="m 12.062046,194.64171 v -0.2 c 0.29,0 0.08,0.23 0.35,0.18 0.1,-0.28 0.43,0 0.53,-0.12 0,0 0.12,0 0.11,0.12 0,-0.15 0.14,0 0.22,-0.07 0.08,-0.07 0,-0.05 0,-0.09 l 0.18,-0.06 c 0.08,0.05 0.09,0.14 0,0.16 a 28.59,28.59 0 0 0 3.35,0.15 c -0.06,-0.12 -0.22,0 -0.28,-0.22 0.14,-0.1 0.2,0 0.26,-0.07 0.05,0.27 0.31,0.06 0.41,0.34 v -0.15 l 0.07,0.09 c 0.61,-0.15 0.14,-0.08 0.68,0 0.31,0 0.46,-0.23 0.64,-0.15 0,0 -0.1,-0.1 0,-0.13 0,0.13 0.21,-0.1 0.25,0 0.08,0 0.34,0 0.25,-0.19 0,0.1 0.27,0.14 0.14,0.21 0.07,0 0.15,0 0.21,0 h -0.1 c 0.26,0 0.4,0.11 0.57,-0.05 l -0.09,-0.07 c 0.15,0 0.28,0 0.34,0.15 l -0.16,0.06 a 1.35,1.35 0 0 0 0.64,-0.11 h -0.08 c 0.28,-0.18 1.72,-0.32 2,-0.54 l -0.11,-0.14 0.22,-0.12 c 0,0 -0.11,0.46 -0.13,0.41 0.46,0 2.9,-0.1 3.33,0 0.17,0.08 0,0.22 0,0.24 0.21,0 0.09,-0.15 0.27,-0.13 0.18,0.02 0,0.11 0,0.13 0,0.02 0.15,0 0.16,0 0.01,0 -0.06,-0.23 -0.1,-0.35 h 0.23 v 0.11 c 0,0 0.13,-0.3 0.36,-0.24 0.23,0.06 0.8,0 1.19,0 0,0.07 -0.09,0.11 -0.17,0.15 a 0.29,0.29 0 0 1 0.18,0 c -0.1,-0.11 0.16,-0.07 0.09,-0.12 0.28,-0.27 0.65,0 0.9,-0.2 0,-0.25 0.52,-4.19 0.52,-4.48 0.08,0 0.15,0 0.18,0 0.03,0 -0.18,-0.1 -0.26,-0.07 v 0.16 c -0.18,0.05 0,-0.09 -0.22,-0.08 0,-0.13 0.15,-0.16 0.3,-0.17 -0.13,0 -0.26,-0.11 -0.32,0 -0.12,-0.05 0,-0.15 -0.13,-0.21 -0.13,-0.06 -0.25,0.16 -0.37,0.08 v 0 c -0.3,-0.13 -0.45,0.19 -0.72,0.06 v 0 c -0.1,-0.08 -0.29,0 -0.46,-0.06 0.05,0 0.09,0.12 0,0.13 -0.09,0.01 -0.34,0 -0.48,-0.1 l -0.14,0.12 c -0.7,0 -3.43,0.13 -4.13,0.15 v 0 c -1.06,0 -3.24,0 -4.33,0.19 a 1.33,1.33 0 0 0 -0.58,-0.13 c 0.1,0 0.06,0.14 0,0.13 -0.53,0 0,0.09 -0.58,0.13 a 19.23,19.23 0 0 1 -3.58,-0.14 c -0.3,0.18 -0.68,0 -1,0.15 v 0 c -0.32,0.06 -2.09,-0.12 -2.46,0 v 0 c -0.3299997,0.11 -0.2799997,-0.09 -0.5299997,-0.15 0,0.2 -0.25,0.32 -0.35,0.33 v 0 a 7.74,7.74 0 0 1 -0.78,0.23 v -0.11 a 2,2 0 0 1 -0.78,0.07 3.41,3.41 0 0 0 -1.38,-0.1 l -0.3,-0.32 h -0.05 c 0,0 -0.62,3.82 0,4.63 v 0.11 h 0.12 c 0.15,0 0.22,-0.07 0.21,0 h -0.2 c 0.15,0 0,0.09 0,0.16 a 0.48,0.48 0 0 1 0.17,0.05 c 0,0 0,0 0,-0.07 0,-0.07 0.2,-0.14 0.29,-0.09 0.09,0.05 0,0.18 0.19,0.2 a 26.54,26.54 0 0 0 2.83,0.21 c 0,0 0,0 0,0.06 0.29,0 0.5499997,0 0.8199997,-0.07 a 0.35,0.35 0 0 1 0.11,0.16 6,6 0 0 1 1.48,-0.14 z"
         id="path117"
         style="fill:#e40303;fill-opacity:1" />
      <path
         class="cls-12"
         d="m 27.552046,199.93171 c -0.08,-0.13 -0.21,-0.14 -0.34,-0.17 a 0.38,0.38 0 0 0 0.34,0.17 z"
         id="path119"
         style="fill:#e40303;fill-opacity:1" />
      <polygon
         class="cls-12"
         points="60.45,175.96 60.45,175.97 "
         id="polygon121"
         transform="translate(-33.237954,23.801709)"
         style="fill:#e40303;fill-opacity:1" />
      <path
         class="cls-12"
         d="m 2.5520463,204.35171 h 0.11 a 0.21,0.21 0 0 0 -0.11,0 z"
         id="path123"
         style="fill:#e40303;fill-opacity:1" />
      <path
         class="cls-12"
         d="m 21.112046,199.21171 v 0.2 c -0.3,0 -0.08,-0.23 -0.36,-0.19 -0.12,0.28 -0.46,0 -0.56,0.1 0,0 -0.13,0 -0.12,-0.12 0,0.15 -0.14,0 -0.23,0.07 -0.09,0.07 0,0 0,0.09 l -0.19,0.05 c -0.08,-0.05 -0.1,-0.14 0,-0.16 a 31.2,31.2 0 0 0 -3.52,-0.24 c 0.07,0.12 0.24,0 0.3,0.23 -0.15,0.1 -0.21,0 -0.28,0.06 0,-0.27 -0.32,-0.07 -0.42,-0.35 v 0.15 l -0.07,-0.09 c -0.64,0.13 -0.14,0.07 -0.71,0 -0.33,0 -0.49,0.22 -0.67,0.14 0,0 0.09,0.1 0,0.13 0,-0.13 -0.23,0.09 -0.27,0 -0.04,-0.09 -0.36,0 -0.27,0.17 0,-0.09 -0.28,-0.14 -0.14,-0.21 -0.08,0 -0.16,0 -0.22,0 l 0.11,0.05 c -0.28,0 -0.42,-0.13 -0.61,0 l 0.1,0.08 c -0.16,0 -0.3,0 -0.36,-0.17 l 0.17,-0.05 a 1.63,1.63 0 0 0 -0.67,0.09 h 0.08 c -0.29,0.17 -1.81,0.27 -2.08,0.49 l 0.11,0.15 -0.23,0.11 c 0,0 0.13,-0.46 0.15,-0.41 -0.4899997,0 -2.9999997,0 -3.4999997,-0.09 -0.18,-0.08 0,-0.22 0,-0.25 -0.23,0.05 -0.11,0.15 -0.3,0.13 -0.19,-0.02 0,-0.11 0.05,-0.13 0.05,-0.02 -0.16,0 -0.17,0 -0.01,0 0,0.23 0.09,0.35 h -0.24 v -0.11 c -0.06,0 -0.15,0.3 -0.39,0.23 -0.4,-0.06 -0.84,0 -1.25,-0.07 0,-0.07 0.1,-0.11 0.19,-0.14 -0.06,0 -0.14,0 -0.19,0 0.09,0.12 -0.17,0.07 -0.1,0.12 -0.31,0.26 -0.68,0 -0.95,0.18 0,0.24 -0.7,4.17 -0.71,4.46 a 0.61,0.61 0 0 1 -0.19,0 c 0,0.06 0.18,0.1 0.27,0.07 v -0.16 c 0.2,-0.05 0,0.09 0.23,0.09 0,0.13 -0.17,0.15 -0.32,0.16 0.13,0 0.27,0.11 0.33,0 0.13,0.05 0,0.15 0.14,0.21 0.14,0.06 0.26,-0.15 0.39,-0.07 v 0 c 0.31,0.14 0.48,-0.18 0.77,0 v 0 c 0.09,0.08 0.3,0 0.48,0.07 0,0 -0.1,-0.12 0,-0.13 0.1,-0.01 0.36,0 0.51,0.11 l 0.15,-0.11 c 0.73,0 3.63,0 4.37,0 v 0 c 1.1199997,0 3.4299997,0.06 4.5899997,-0.08 a 1.48,1.48 0 0 0 0.61,0.15 c -0.1,-0.05 -0.06,-0.14 0,-0.13 0.57,0 0,-0.08 0.62,-0.12 a 21.32,21.32 0 0 1 3.78,0.25 c 0.33,-0.17 0.72,0 1,-0.13 v 0 c 0.33,0 2.21,0.18 2.6,0.13 h -0.05 c 0.34,-0.1 0.29,0.09 0.55,0.16 0,-0.2 0.27,-0.31 0.38,-0.32 v 0.05 a 5.24,5.24 0 0 1 0.83,-0.21 v 0.11 a 2.46,2.46 0 0 1 0.83,-0.06 3.58,3.58 0 0 0 1.46,0.14 l 0.31,0.33 v 0 c 0,0 0.65,-3.8 0,-4.63 v -0.11 h -0.13 c -0.16,-0.06 -0.24,0.07 -0.22,0 h 0.21 c -0.16,0 0,-0.1 0,-0.16 a 0.35,0.35 0 0 1 -0.18,-0.06 c 0,0 0,0 0,0.07 0,0.07 -0.2,0.14 -0.31,0.08 -0.11,-0.06 0,-0.18 -0.19,-0.19 a 26.9,26.9 0 0 0 -3,-0.29 c 0,0 0,0 0,-0.07 -0.31,0 -0.58,0 -0.86,0.06 a 0.37,0.37 0 0 1 -0.11,-0.17 6.73,6.73 0 0 1 -1.42,-0.09 z"
         id="path125"
         style="fill:#e40303;fill-opacity:1" />
    </g>
  </g>
  <text
     xml:space="preserve"
     id="text2664"
     style="font-style:normal;font-variant:normal;font-weight:normal;font-stretch:normal;font-size:20px;line-height:1.25;font-family:Kanit;-inkscape-font-specification:Kanit;letter-spacing:-48.85px;word-spacing:-0.01px;white-space:pre;shape-inside:url(#rect2666);fill:#000000;fill-opacity:1;stroke:none"
     transform="matrix(0.70476181,0,0,0.70476181,0.49598415,39.184424)" />
  <text
     xml:space="preserve"
     id="text12806"
     style="font-style:normal;font-variant:normal;font-weight:normal;font-stretch:normal;font-size:20px;line-height:1.25;font-family:Kanit;-inkscape-font-specification:Kanit;letter-spacing:-48.85px;word-spacing:-0.01px;white-space:pre;shape-inside:url(#rect12808);fill:#000000;fill-opacity:1;stroke:none"
     transform="matrix(0.70476181,0,0,0.70476181,0.49598415,39.184424)" />
  <text
     xml:space="preserve"
     id="text20842"
     style="font-size:20px;line-height:1.25;font-family:Kanit;-inkscape-font-specification:Kanit;letter-spacing:-48.85px;word-spacing:-0.01px;white-space:pre;shape-inside:url(#rect20844)"
     transform="matrix(0.70476181,0,0,0.70476181,0.49598415,39.184424)" />
  <text
     xml:space="preserve"
     style="font-style:normal;font-variant:normal;font-weight:800;font-stretch:normal;font-size:14.0952px;line-height:1.25;font-family:Kanit;-inkscape-font-specification:'Kanit Ultra-Bold';letter-spacing:0px;word-spacing:-0.00704761px;stroke-width:0.704761"
     x="80.05246"
     y="50.820427"
     id="text24128"><tspan
       sodipodi:role="line"
       id="tspan24126"
       x="80.05246"
       y="50.820427"
       style="stroke-width:0.704761" /></text>
  <path
     d="m 35.852159,30.962193 q -2.160112,0 -3.500872,-1.229029 -1.328345,-1.241445 -1.328345,-3.562944 0,-1.464904 0.521406,-2.383572 0.533821,-0.931083 1.440075,-1.440075 0.918669,-0.508992 2.073211,-0.695209 1.154543,-0.19863 2.420816,-0.19863 h 2.520131 v -0.608308 q 0,-0.757281 -0.397262,-1.129714 -0.384848,-0.384847 -0.993155,-0.521406 -0.608308,-0.136559 -1.266273,-0.136559 -1.31593,0 -2.532545,0.360019 -1.2042,0.360018 -2.408401,1.017983 V 17.33114 q 1.291102,-0.521407 2.557374,-0.744867 1.278687,-0.235873 2.582203,-0.235873 2.284257,0 3.612601,0.657965 1.328346,0.64555 1.886995,1.998724 0.571064,1.353174 0.571064,3.463628 0,0.484163 -0.02483,1.241444 -0.01241,0.757281 -0.01241,1.514562 0,0.670379 -0.01242,1.266272 -0.01241,0.595893 -0.01241,1.00557 0,0.360019 0.03724,0.943497 0.03724,0.571064 0.173802,1.166957 0.136559,0.595893 0.422091,0.993155 h -3.600187 q -0.235874,-0.397262 -0.347604,-0.744866 -0.09932,-0.347604 -0.161388,-0.806939 -0.732452,0.980741 -1.837337,1.45249 -1.09247,0.459334 -2.383572,0.459334 z m 1.191785,-2.520131 q 1.142129,0 1.775265,-0.620722 0.645551,-0.633136 0.906254,-1.576634 0.273118,-0.955912 0.273118,-1.924237 V 24.07218 h -1.452489 q -0.856597,0 -1.700778,0.124144 -0.831768,0.11173 -1.390417,0.583479 -0.55865,0.459334 -0.55865,1.526976 0,1.017983 0.55865,1.576633 0.571064,0.55865 1.589047,0.55865 z"
     style="font-weight:bold;font-size:37.3333px;line-height:1.25;font-family:hack;-inkscape-font-specification:'hack Bold';letter-spacing:0px;word-spacing:0px;white-space:pre;stroke-width:0.681021;fill:#e40303;fill-opacity:1"
     id="path122435" />
  <path
     d="m 54.337257,30.962193 q -2.54496,0 -3.699503,-2.420815 l -0.360018,2.060796 H 47.012739 V 11.285309 h 3.625015 v 7.38659 q 1.315931,-2.309085 3.699503,-2.309085 2.333914,0 3.662259,1.936652 1.340759,1.924238 1.340759,5.350623 0,3.426385 -1.328344,5.375452 -1.328345,1.936652 -3.674674,1.936652 z m -1.154543,-2.979465 q 1.142128,0 1.824922,-1.179372 0.695209,-1.191786 0.695209,-3.19051 0,-1.961482 -0.67038,-3.091196 -0.657965,-1.129713 -1.812508,-1.129713 -1.179371,0 -1.886994,1.179371 -0.695209,1.166957 -0.695209,3.116024 0,1.949067 0.695209,3.128439 0.695208,1.166957 1.849751,1.166957 z"
     style="font-weight:bold;font-size:37.3333px;line-height:1.25;font-family:hack;-inkscape-font-specification:'hack Bold';letter-spacing:0px;word-spacing:0px;white-space:pre;stroke-width:0.681021;fill:#e40303;fill-opacity:1"
     id="path122437" />
  <path
     d="m 68.017968,30.962193 q -2.346329,0 -5.20165,-0.869011 v -3.178096 q 2.445644,1.402831 4.903703,1.402831 2.557374,0 2.557374,-1.514561 0,-0.670379 -0.608307,-1.080056 -0.608308,-0.409676 -2.073211,-0.720037 l -1.00557,-0.22346 q -3.997449,-0.89384 -3.997449,-4.109179 0,-2.073211 1.477319,-3.190511 1.489732,-1.117299 4.307809,-1.117299 1.104885,0 2.172527,0.186216 1.067641,0.186217 2.20977,0.583479 v 3.178096 q -1.092471,-0.695209 -2.085626,-0.993155 -0.993155,-0.310361 -2.060796,-0.310361 -1.241444,0 -1.911824,0.360019 -0.67038,0.360019 -0.67038,0.968326 0,0.55865 0.633137,0.968326 0.633136,0.397262 2.023553,0.720038 l 1.179372,0.285532 q 1.998725,0.471748 2.917393,1.514561 0.918668,1.042813 0.918668,2.756005 0,4.382297 -5.685812,4.382297 z"
     style="font-weight:bold;font-size:37.3333px;line-height:1.25;font-family:hack;-inkscape-font-specification:'hack Bold';letter-spacing:0px;word-spacing:0px;white-space:pre;stroke-width:0.681021;fill:#e40303;fill-opacity:1"
     id="path122439" />
  <path
     d="m 84.566411,30.962193 q -3.302241,0 -5.139577,-1.924238 -1.824923,-1.924238 -1.824923,-5.363037 0,-3.451214 1.812508,-5.387866 1.824923,-1.949067 5.040262,-1.949067 2.20977,0 4.233324,1.067641 v 3.32707 q -1.613878,-1.415246 -3.637431,-1.415246 -1.824922,0 -2.793249,1.129714 -0.968326,1.129714 -0.968326,3.21534 0,2.073211 0.955912,3.202925 0.968326,1.117299 2.756005,1.117299 2.122869,0 3.687089,-1.42766 v 3.339483 q -1.849752,1.067642 -4.121594,1.067642 z"
     style="font-weight:bold;font-size:37.3333px;line-height:1.25;font-family:hack;-inkscape-font-specification:'hack Bold';letter-spacing:0px;word-spacing:0px;white-space:pre;stroke-width:0.681021;fill:#ff8c00;fill-opacity:1"
     id="path122441" />
  <path
     d="m 93.206865,11.285309 h 3.612599 v 7.49832 q 0.39726,-1.166957 1.328346,-1.787679 0.931078,-0.633136 2.27184,-0.633136 1.93665,0 2.94222,1.328345 1.00557,1.328345 1.00557,3.885719 v 9.025296 h -3.6126 v -8.466647 q 0,-1.452489 -0.42209,-2.122869 -0.42209,-0.670379 -1.2911,-0.670379 -1.055229,0 -1.638707,0.881425 -0.583479,0.881425 -0.583479,2.420815 v 7.957655 h -3.612599 z"
     style="font-weight:bold;font-size:37.3333px;line-height:1.25;font-family:hack;-inkscape-font-specification:'hack Bold';letter-spacing:0px;word-spacing:0px;white-space:pre;stroke-width:0.681021;fill:#ff8c00;fill-opacity:1"
     id="path122443" />
  <path
     d="m 116.16116,30.70149 q -2.5822,0 -3.72433,-1.353174 -1.12972,-1.365588 -1.12972,-4.444369 v -10.82539 h -3.68709 v -2.793248 h 7.32452 v 13.618638 q 0,1.613877 0.509,2.309086 0.5214,0.695208 1.7256,0.695208 h 2.90498 v 2.793249 z"
     style="font-weight:bold;font-size:37.3333px;line-height:1.25;font-family:hack;-inkscape-font-specification:'hack Bold';letter-spacing:0px;word-spacing:0px;white-space:pre;stroke-width:0.681021;fill:#ff8c00;fill-opacity:1"
     id="path122445" />
  <path
     d="m 130.02808,30.962193 q -3.58777,0 -5.46236,-1.849751 -1.86216,-1.862166 -1.86216,-5.375452 0,-2.222185 0.7697,-3.873305 0.76969,-1.663534 2.29667,-2.582203 1.53939,-0.918668 3.84847,-0.918668 1.89941,0 3.28983,0.881425 1.39042,0.881425 2.1477,2.458058 0.76969,1.56422 0.76969,3.649846 v 1.477318 h -9.42255 q 0,3.252582 3.79881,3.252582 2.49531,0 5.04026,-1.502147 v 3.339484 q -2.53254,1.042813 -5.21406,1.042813 z m 2.13529,-8.863909 q 0,-1.440075 -0.70763,-2.172527 -0.70762,-0.744866 -2.02355,-0.744866 -1.34076,0 -2.09804,0.757281 -0.75728,0.75728 -0.89384,2.160112 z"
     style="font-weight:bold;font-size:37.3333px;line-height:1.25;font-family:hack;-inkscape-font-specification:'hack Bold';letter-spacing:0px;word-spacing:0px;white-space:pre;stroke-width:0.681021;fill:#ffed00;fill-opacity:1"
     id="path122447" />
  <path
     d="m 138.85475,16.698004 h 3.265 l 0.36001,2.085625 q 1.15454,-2.420815 3.69951,-2.420815 2.34633,0 3.67467,1.949066 1.32835,1.936653 1.32835,5.363038 0,3.426384 -1.32835,5.363037 -1.32834,1.924238 -3.64984,1.924238 -2.44565,0 -3.72434,-2.3215 v 7.250032 h -3.62501 z m 6.16997,11.235066 q 1.14213,0 1.82492,-1.179372 0.69522,-1.191785 0.69522,-3.19051 0,-1.961481 -0.67039,-3.091195 -0.65796,-1.129714 -1.8125,-1.129714 -1.17937,0 -1.88699,1.179371 -0.69522,1.166958 -0.69522,3.116024 0,1.949067 0.69522,3.128439 0.6952,1.166957 1.84974,1.166957 z"
     style="font-weight:bold;font-size:37.3333px;line-height:1.25;font-family:hack;-inkscape-font-specification:'hack Bold';letter-spacing:0px;word-spacing:0px;white-space:pre;stroke-width:0.681021;fill:#ffed00;fill-opacity:1"
     id="path122449" />
  <path
     d="m 154.16175,16.698004 h 3.265 l 0.36002,2.085625 q 1.15454,-2.420815 3.6995,-2.420815 2.34633,0 3.67468,1.949066 1.32834,1.936653 1.32834,5.363038 0,3.426384 -1.32834,5.363037 -1.32835,1.924238 -3.64985,1.924238 -2.44565,0 -3.72433,-2.3215 v 7.250032 h -3.62502 z m 6.16998,11.235066 q 1.14213,0 1.82492,-1.179372 0.69521,-1.191785 0.69521,-3.19051 0,-1.961481 -0.67038,-3.091195 -0.65796,-1.129714 -1.81251,-1.129714 -1.17937,0 -1.88699,1.179371 -0.69521,1.166958 -0.69521,3.116024 0,1.949067 0.69521,3.128439 0.69521,1.166957 1.84975,1.166957 z"
     style="font-weight:bold;font-size:37.3333px;line-height:1.25;font-family:hack;-inkscape-font-specification:'hack Bold';letter-spacing:0px;word-spacing:0px;white-space:pre;stroke-width:0.681021;fill:#ffed00;fill-opacity:1"
     id="path122451" />
  <path
     d="m 174.84421,35.865896 q -2.35874,0 -4.56851,-0.682794 v -3.339484 q 2.01113,1.1173 4.19607,1.1173 1.6263,0 2.35875,-0.720038 0.74486,-0.720038 0.74486,-2.271842 v -1.502147 q -1.06764,1.961481 -3.5257,1.961481 -1.4649,0 -2.47047,-0.595893 -0.99315,-0.608308 -1.60146,-1.601463 -0.60831,-1.005569 -0.88143,-2.222184 -0.27311,-1.216615 -0.27311,-2.458059 0,-1.216615 0.2607,-2.470473 0.2607,-1.266272 0.84418,-2.346328 0.59589,-1.080057 1.56422,-1.738022 0.98074,-0.657965 2.4084,-0.657965 2.55738,0 3.67467,2.135283 l 0.36003,-1.775264 h 3.2774 v 12.861357 q 0,3.339484 -1.50214,4.816802 -1.50215,1.489733 -4.86646,1.489733 z m 0.16139,-8.317673 q 1.12971,0 1.84975,-1.154543 0.72003,-1.154543 0.72003,-2.967051 0,-1.812508 -0.72003,-2.954636 -0.70762,-1.154543 -1.83734,-1.154543 -1.12971,0 -1.84975,1.154543 -0.70762,1.142128 -0.70762,2.954636 0,1.812508 0.70762,2.967051 0.70762,1.154543 1.83734,1.154543 z"
     style="font-weight:bold;font-size:37.3333px;line-height:1.25;font-family:hack;-inkscape-font-specification:'hack Bold';letter-spacing:0px;word-spacing:0px;white-space:pre;stroke-width:0.681021;fill:#008026;fill-opacity:1"
     id="path122453" />
  <path
     d="m 185.90548,16.698004 h 3.27741 l 0.36002,2.160112 q 0.53382,-1.179372 1.62629,-1.837337 1.10488,-0.657965 2.5822,-0.657965 1.52698,0 2.8305,0.707623 v 3.463628 q -1.20421,-1.092471 -3.15328,-1.092471 -1.57663,0 -2.55737,0.720038 -0.98074,0.720037 -1.21661,2.073211 -0.0497,0.310361 -0.0869,0.78211 -0.0249,0.459334 -0.0249,1.179371 v 6.40585 h -3.63743 z"
     style="font-weight:bold;font-size:37.3333px;line-height:1.25;font-family:hack;-inkscape-font-specification:'hack Bold';letter-spacing:0px;word-spacing:0px;white-space:pre;stroke-width:0.681021;fill:#008026;fill-opacity:1"
     id="path122455" />
  <path
     d="m 204.17952,30.962193 q -1.93665,0 -2.95463,-1.328345 -1.01799,-1.340759 -1.01799,-3.885719 v -9.050125 h 3.63743 v 8.491475 q 0,2.793249 1.71319,2.793249 1.04282,0 1.61388,-0.869011 0.58348,-0.869011 0.58348,-2.43323 v -7.982483 h 3.63743 v 13.90417 h -3.27741 l -0.36002,-2.060796 q -0.83177,2.420815 -3.57536,2.420815 z"
     style="font-weight:bold;font-size:37.3333px;line-height:1.25;font-family:hack;-inkscape-font-specification:'hack Bold';letter-spacing:0px;word-spacing:0px;white-space:pre;stroke-width:0.681021;fill:#008026;fill-opacity:1"
     id="path122457" />
  <path
     d="m 215.38975,16.698004 h 3.265 l 0.36002,2.085625 q 1.15454,-2.420815 3.6995,-2.420815 2.34633,0 3.67468,1.949066 1.32834,1.936653 1.32834,5.363038 0,3.426384 -1.32834,5.363037 -1.32835,1.924238 -3.64985,1.924238 -2.44565,0 -3.72433,-2.3215 v 7.250032 h -3.62502 z m 6.16998,11.235066 q 1.14213,0 1.82492,-1.179372 0.69521,-1.191785 0.69521,-3.19051 0,-1.961481 -0.67038,-3.091195 -0.65797,-1.129714 -1.81251,-1.129714 -1.17937,0 -1.887,1.179371 -0.6952,1.166958 -0.6952,3.116024 0,1.949067 0.6952,3.128439 0.69521,1.166957 1.84976,1.166957 z"
     style="font-weight:bold;font-size:37.3333px;line-height:1.25;font-family:hack;-inkscape-font-specification:'hack Bold';letter-spacing:0px;word-spacing:0px;white-space:pre;stroke-width:0.681021;fill:#004dff;fill-opacity:1"
     id="path122459" />
  <path
     d="m 230.69677,16.698004 h 3.265 l 0.36001,2.085625 q 1.15454,-2.420815 3.69951,-2.420815 2.34632,0 3.67467,1.949066 1.32835,1.936653 1.32835,5.363038 0,3.426384 -1.32835,5.363037 -1.32835,1.924238 -3.64984,1.924238 -2.44565,0 -3.72434,-2.3215 v 7.250032 h -3.62501 z m 6.16997,11.235066 q 1.14213,0 1.82492,-1.179372 0.69522,-1.191785 0.69522,-3.19051 0,-1.961481 -0.67039,-3.091195 -0.65796,-1.129714 -1.8125,-1.129714 -1.17937,0 -1.887,1.179371 -0.69521,1.166958 -0.69521,3.116024 0,1.949067 0.69521,3.128439 0.69521,1.166957 1.84975,1.166957 z"
     style="font-weight:bold;font-size:37.3333px;line-height:1.25;font-family:hack;-inkscape-font-specification:'hack Bold';letter-spacing:0px;word-spacing:0px;white-space:pre;stroke-width:0.681021;fill:#004dff;fill-opacity:1"
     id="path122461" />
  <path
     d="m 252.4841,30.962193 q -3.58778,0 -5.46236,-1.849751 -1.86216,-1.862166 -1.86216,-5.375452 0,-2.222185 0.7697,-3.873305 0.76969,-1.663534 2.29667,-2.582203 1.53938,-0.918668 3.84847,-0.918668 1.89941,0 3.28983,0.881425 1.39042,0.881425 2.14769,2.458058 0.7697,1.56422 0.7697,3.649846 v 1.477318 h -9.42256 q 0,3.252582 3.79882,3.252582 2.4953,0 5.04026,-1.502147 v 3.339484 q -2.53254,1.042813 -5.21406,1.042813 z m 2.13528,-8.863909 q 0,-1.440075 -0.70762,-2.172527 -0.70762,-0.744866 -2.02356,-0.744866 -1.34076,0 -2.09804,0.757281 -0.75728,0.75728 -0.89384,2.160112 z"
     style="font-weight:bold;font-size:37.3333px;line-height:1.25;font-family:hack;-inkscape-font-specification:'hack Bold';letter-spacing:0px;word-spacing:0px;white-space:pre;stroke-width:0.681021;fill:#004dff;fill-opacity:1"
     id="path122463" />
  <path
     d="m 267.04624,31.12358 q -0.48415,0 -0.85659,-0.173802 -0.37243,-0.161387 -0.68279,-0.471748 -0.64556,-0.645551 -0.64556,-1.626291 0,-1.017985 0.64556,-1.663535 0.63313,-0.633136 1.5518,-0.633136 0.93109,0 1.56422,0.633136 0.63314,0.633136 0.63314,1.663535 0,0.993155 -0.63314,1.626291 -0.64555,0.64555 -1.57664,0.64555 z"
     style="font-weight:bold;font-size:37.3333px;line-height:1.25;font-family:hack;-inkscape-font-specification:'hack Bold';letter-spacing:0px;word-spacing:0px;white-space:pre;stroke-width:0.681021;fill:#750787;fill-opacity:1"
     id="path122465" />
  <path
     d="m 280.87593,30.962193 q -2.34633,0 -3.67468,-1.936652 -1.32834,-1.949067 -1.32834,-5.350623 0,-3.438799 1.34076,-5.375452 1.34075,-1.936652 3.68708,-1.936652 2.33391,0 3.67467,2.309085 v -7.38659 h 3.62502 v 19.316865 h -3.26499 l -0.36003,-2.060796 q -1.15454,2.420815 -3.69949,2.420815 z m 1.15454,-2.979465 q 1.15454,0 1.84975,-1.166957 0.6952,-1.179372 0.6952,-3.128439 0,-1.949067 -0.70762,-3.116024 -0.69521,-1.179371 -1.87458,-1.179371 -1.15454,0 -1.82492,1.129713 -0.65796,1.129714 -0.65796,3.091196 0,1.998724 0.68279,3.19051 0.6952,1.179372 1.83734,1.179372 z"
     style="font-weight:bold;font-size:37.3333px;line-height:1.25;font-family:hack;-inkscape-font-specification:'hack Bold';letter-spacing:0px;word-spacing:0px;white-space:pre;stroke-width:0.681021;fill:#750787;fill-opacity:1"
     id="path122467" />
  <path
     d="m 298.4051,30.962193 q -3.58777,0 -5.46235,-1.849751 -1.86216,-1.862166 -1.86216,-5.375452 0,-2.222185 0.76969,-3.873305 0.76969,-1.663534 2.29667,-2.582203 1.53939,-0.918668 3.84847,-0.918668 1.89941,0 3.28983,0.881425 1.39042,0.881425 2.1477,2.458058 0.76969,1.56422 0.76969,3.649846 v 1.477318 h -9.42256 q 0,3.252582 3.79882,3.252582 2.4953,0 5.04027,-1.502147 v 3.339484 q -2.53255,1.042813 -5.21407,1.042813 z m 2.13529,-8.863909 q 0,-1.440075 -0.70763,-2.172527 -0.70762,-0.744866 -2.02355,-0.744866 -1.34076,0 -2.09804,0.757281 -0.75728,0.75728 -0.89384,2.160112 z"
     style="font-weight:bold;font-size:37.3333px;line-height:1.25;font-family:hack;-inkscape-font-specification:'hack Bold';letter-spacing:0px;word-spacing:0px;white-space:pre;stroke-width:0.681021;fill:#750787;fill-opacity:1"
     id="path122469" />
  <path
     d="m 306.19955,127.09974 c -2.64288,0 -4.78548,2.1426 -4.78548,4.78548 0,2.64258 2.1426,4.78547 4.78548,4.78547 2.64287,0 4.78548,-2.14289 4.78548,-4.78547 0,-2.6429 -2.14261,-4.78548 -4.78548,-4.78548 z m 0,8.67363 c -2.14407,0 -3.8883,-1.74438 -3.8883,-3.88815 0,-0.44882 0.0774,-0.87981 0.21799,-1.28096 l 1.52071,0.67718 c -0.0409,0.20349 -0.0632,0.41579 -0.0632,0.63504 0,1.91045 1.42598,2.44873 2.32316,2.44873 0.52906,0 0.98696,-0.17078 1.34538,-0.42132 0.0681,-0.0487 0.12984,-0.098 0.18656,-0.14795 l -0.69765,-0.84765 c -0.0205,0.0234 -0.0418,0.0456 -0.0636,0.0656 -0.27135,0.25728 -0.5696,0.25728 -0.63625,0.25728 -0.72994,0 -1.03548,-0.77014 -1.03957,-1.38706 l 4.1912,1.86601 c 0.005,7.1e-4 0.009,7.1e-4 0.0132,9.5e-4 -0.66134,1.20408 -1.94168,2.02158 -3.40947,2.02158 z m 3.74692,-2.89463 -4.32278,-1.92947 c 0.15599,-0.28243 0.40423,-0.49471 0.7757,-0.49471 0.21535,0 0.3861,0.0713 0.5206,0.16142 0.0558,0.0403 0.10439,0.0806 0.14531,0.12132 l 0.7792,-0.80202 c -0.52335,-0.44997 -1.11837,-0.53038 -1.50753,-0.53038 -0.91441,0 -1.56148,0.39529 -1.94289,0.99558 l -1.44558,-0.64472 c 0.69575,-1.05844 1.89291,-1.759 3.25105,-1.759 2.14404,0 3.88844,1.74412 3.88844,3.88846 0,0.34708 -0.0465,0.683 -0.13217,1.00347 -0.004,-0.004 -0.006,-0.006 -0.01,-0.01 z"
     id="path82056"
     style="stroke-width:0.0249244" />
  <text
     xml:space="preserve"
     id="text34696"
     style="font-size:37.3333px;line-height:1.25;font-family:Kanit;-inkscape-font-specification:Kanit;letter-spacing:0px;word-spacing:0px;white-space:pre;shape-inside:url(#rect34698)"
     transform="matrix(0.70476181,0,0,0.70476181,0.71868115,-5.0765374)" />
  <path
     d="m 44.275814,151.75477 h 5.817937 q 3.933254,0 5.654052,1.39303 0.860399,0.69651 1.28377,1.84371 0.423371,1.13354 0.423371,2.62217 0,1.1472 -0.259485,1.96663 -0.245829,0.81942 -0.7648,1.44765 -0.491656,0.60092 -1.215484,0.98332 -0.710171,0.36874 -1.734456,0.50531 0.641886,0.13657 1.051599,0.55994 0.204857,0.20486 0.464343,0.62823 0.273142,0.42337 0.614571,1.10623 l 3.687425,7.33388 h -4.42491 l -2.458284,-5.14874 -0.286799,-0.60092 q -0.5736,-1.17451 -1.174513,-1.73445 -0.600914,-0.5736 -1.365713,-0.5736 h -1.283771 v 8.05771 h -4.028853 z m 5.927194,8.94542 q 1.66617,0 2.376341,-0.65554 0.327771,-0.30046 0.518971,-0.80577 0.1912,-0.50532 0.1912,-1.32474 0,-1.50229 -0.710171,-2.13052 -0.723828,-0.64188 -2.376341,-0.64188 h -1.898341 v 5.55845 z"
     style="font-weight:bold;font-size:27.9698px;line-height:1.25;font-family:hack;-inkscape-font-specification:'hack Bold';letter-spacing:0px;word-spacing:-0.00655544px;fill:#e40303;fill-opacity:1;stroke-width:0.655544"
     id="path6516" />
  <path
     d="m 67.711449,172.54092 q -2.171484,0 -3.769368,-0.98331 -1.584227,-0.98331 -2.444626,-2.7724 -0.860399,-1.80274 -0.860399,-4.26102 0,-2.47194 0.860399,-4.27468 0.874056,-1.80275 2.47194,-2.78606 1.611542,-0.98331 3.810339,-0.98331 2.171484,0 3.742054,0.96965 1.584227,0.956 2.430969,2.74509 0.846742,1.77542 0.846742,4.24736 0,2.49926 -0.874056,4.31566 -0.8604,1.8164 -2.444627,2.79971 -1.584227,0.98331 -3.769367,0.98331 z m 0.01366,-3.25039 q 1.420341,0 2.239769,-1.28378 0.833085,-1.29742 0.833085,-3.49622 0,-2.21246 -0.833085,-3.49623 -0.819428,-1.28377 -2.239769,-1.28377 -1.420342,0 -2.253426,1.29743 -0.833085,1.28377 -0.833085,3.48257 0,2.18514 0.833085,3.48257 0.833084,1.29743 2.253426,1.29743 z"
     style="font-weight:bold;font-size:27.9698px;line-height:1.25;font-family:hack;-inkscape-font-specification:'hack Bold';letter-spacing:0px;word-spacing:-0.00655544px;fill:#e40303;fill-opacity:1;stroke-width:0.655544"
     id="path6518" />
  <path
     d="m 86.899716,172.25412 q -2.840683,0 -4.097139,-1.48863 -1.242799,-1.50228 -1.242799,-4.88925 v -11.90901 h -4.056167 v -3.07286 h 8.057706 v 14.98187 q 0,1.77543 0.559943,2.54023 0.573599,0.7648 1.898341,0.7648 h 3.195768 v 3.07285 z"
     style="font-weight:bold;font-size:27.9698px;line-height:1.25;font-family:hack;-inkscape-font-specification:'hack Bold';letter-spacing:0px;word-spacing:-0.00655544px;fill:#ff8c00;fill-opacity:1;stroke-width:0.655544"
     id="path6520" />
  <path
     d="m 103.73896,172.25412 q -2.84068,0 -4.097145,-1.48863 -1.2428,-1.50228 -1.2428,-4.88925 v -11.90901 h -4.05616 v -3.07286 h 8.057705 v 14.98187 q 0,1.77543 0.55995,2.54023 0.5736,0.7648 1.89834,0.7648 h 3.19576 v 3.07285 z"
     style="font-weight:bold;font-size:27.9698px;line-height:1.25;font-family:hack;-inkscape-font-specification:'hack Bold';letter-spacing:0px;word-spacing:-0.00655544px;fill:#ff8c00;fill-opacity:1;stroke-width:0.655544"
     id="path6522" />
  <path
     d="m 118.99398,172.54092 q -3.94691,0 -6.00914,-2.03491 -2.04857,-2.04857 -2.04857,-5.91354 0,-2.44462 0.84674,-4.26102 0.84674,-1.83006 2.52657,-2.84068 1.69348,-1.01063 4.23371,-1.01063 2.08954,0 3.61914,0.96965 1.5296,0.96966 2.36268,2.70412 0.84675,1.72079 0.84675,4.01519 v 1.6252 h -10.36577 q 0,3.57817 4.17909,3.57817 2.74508,0 5.54479,-1.65251 v 3.67376 q -2.78605,1.1472 -5.73599,1.1472 z m 2.34902,-9.75119 q 0,-1.58423 -0.77845,-2.39 -0.77846,-0.81942 -2.22612,-0.81942 -1.47497,0 -2.30805,0.83308 -0.83309,0.83309 -0.98331,2.37634 z"
     style="font-weight:bold;font-size:27.9698px;line-height:1.25;font-family:hack;-inkscape-font-specification:'hack Bold';letter-spacing:0px;word-spacing:-0.00655544px;fill:#ff8c00;fill-opacity:1;stroke-width:0.655544"
     id="path6524" />
  <path
     d="m 134.97282,172.54092 q -2.5812,0 -5.72234,-0.956 v -3.49622 q 2.69046,1.54325 5.39457,1.54325 2.81337,0 2.81337,-1.66617 0,-0.73748 -0.6692,-1.18817 -0.6692,-0.45068 -2.28074,-0.79211 l -1.10623,-0.24583 q -4.3976,-0.98331 -4.3976,-4.52051 0,-2.28074 1.6252,-3.50988 1.63886,-1.22914 4.73902,-1.22914 1.21549,0 2.39,0.20485 1.17452,0.20486 2.43097,0.64189 v 3.49622 q -1.20183,-0.76479 -2.2944,-1.09257 -1.09257,-0.34142 -2.26708,-0.34142 -1.36571,0 -2.1032,0.39605 -0.73748,0.39606 -0.73748,1.06526 0,0.61457 0.69651,1.06526 0.69651,0.43702 2.22611,0.79211 l 1.29743,0.31411 q 2.1988,0.51897 3.20943,1.66617 1.01062,1.1472 1.01062,3.03189 0,4.82096 -6.25496,4.82096 z"
     style="font-weight:bold;font-size:27.9698px;line-height:1.25;font-family:hack;-inkscape-font-specification:'hack Bold';letter-spacing:0px;word-spacing:-0.00655544px;fill:#ffed00;fill-opacity:1;stroke-width:0.655544"
     id="path6526" />
  <path
     d="m 154.78931,172.19949 q -2.25342,0 -3.53719,-0.46434 -1.27012,-0.46434 -1.80274,-1.59788 -0.53263,-1.13354 -0.53263,-3.11383 v -7.10171 h -3.90594 v -3.07285 h 3.90594 v -4.17908 l 4.00154,-1.77543 v 5.95451 h 5.23068 v 3.07285 h -5.23068 v 7.29291 q 0,1.01063 0.50531,1.46131 0.51897,0.45069 1.65251,0.45069 h 3.07286 v 3.07285 z"
     style="font-weight:bold;font-size:27.9698px;line-height:1.25;font-family:hack;-inkscape-font-specification:'hack Bold';letter-spacing:0px;word-spacing:-0.00655544px;fill:#ffed00;fill-opacity:1;stroke-width:0.655544"
     id="path6528" />
  <path
     d="m 166.94416,172.54092 q -2.37634,0 -3.85131,-1.35205 -1.46131,-1.36572 -1.46131,-3.9196 0,-1.61154 0.57359,-2.62217 0.58726,-1.02428 1.58423,-1.58423 1.01063,-0.55994 2.28074,-0.7648 1.27012,-0.21851 2.66314,-0.21851 h 2.7724 v -0.6692 q 0,-0.83308 -0.43703,-1.2428 -0.42337,-0.42337 -1.09257,-0.5736 -0.6692,-0.15023 -1.39303,-0.15023 -1.44765,0 -2.78605,0.39606 -1.32474,0.39606 -2.64948,1.11989 v -3.41429 q 1.42034,-0.5736 2.81337,-0.81942 1.40668,-0.25949 2.84068,-0.25949 2.51291,0 3.97422,0.72383 1.46132,0.71017 2.07589,2.1988 0.62822,1.48862 0.62822,3.81034 0,0.53262 -0.0273,1.36571 -0.0137,0.83308 -0.0137,1.66617 0,0.73748 -0.0136,1.39303 -0.0137,0.65554 -0.0137,1.10622 0,0.39606 0.041,1.03794 0.041,0.62823 0.1912,1.28377 0.15023,0.65555 0.46434,1.09258 h -3.96056 q -0.25949,-0.43703 -0.3824,-0.81943 -0.10926,-0.3824 -0.17755,-0.88772 -0.80577,1.07892 -2.02125,1.59789 -1.20183,0.50531 -2.62217,0.50531 z m 1.31108,-2.7724 q 1.25646,0 1.95297,-0.68285 0.71017,-0.69652 0.99697,-1.73446 0.30046,-1.0516 0.30046,-2.11685 v -0.27315 h -1.59788 q -0.94235,0 -1.87103,0.13658 -0.91503,0.12291 -1.5296,0.64188 -0.61457,0.50532 -0.61457,1.67983 0,1.11988 0.61457,1.73445 0.62823,0.61457 1.74811,0.61457 z"
     style="font-weight:bold;font-size:27.9698px;line-height:1.25;font-family:hack;-inkscape-font-specification:'hack Bold';letter-spacing:0px;word-spacing:-0.00655544px;fill:#ffed00;fill-opacity:1;stroke-width:0.655544"
     id="path6530" />
  <path
     d="m 188.4678,172.19949 q -2.25343,0 -3.5372,-0.46434 -1.27011,-0.46434 -1.80274,-1.59788 -0.53263,-1.13354 -0.53263,-3.11383 v -7.10171 h -3.90594 v -3.07285 h 3.90594 v -4.17908 l 4.00154,-1.77543 v 5.95451 h 5.23068 v 3.07285 h -5.23068 v 7.29291 q 0,1.01063 0.50531,1.46131 0.51897,0.45069 1.65251,0.45069 h 3.07286 v 3.07285 z"
     style="font-weight:bold;font-size:27.9698px;line-height:1.25;font-family:hack;-inkscape-font-specification:'hack Bold';letter-spacing:0px;word-spacing:-0.00655544px;fill:#008026;fill-opacity:1;stroke-width:0.655544"
     id="path6532" />
  <path
     d="m 205.30703,172.19949 q -2.25343,0 -3.5372,-0.46434 -1.27011,-0.46434 -1.80274,-1.59788 -0.53263,-1.13354 -0.53263,-3.11383 v -7.10171 h -3.90594 v -3.07285 h 3.90594 v -4.17908 l 4.00154,-1.77543 v 5.95451 h 5.23068 v 3.07285 H 203.436 v 7.29291 q 0,1.01063 0.50532,1.46131 0.51897,0.45069 1.65251,0.45069 h 3.07285 v 3.07285 z"
     style="font-weight:bold;font-size:27.9698px;line-height:1.25;font-family:hack;-inkscape-font-specification:'hack Bold';letter-spacing:0px;word-spacing:-0.00655544px;fill:#008026;fill-opacity:1;stroke-width:0.655544"
     id="path6534" />
  <path
     d="m 212.44972,151.75477 h 4.02885 v 8.05771 l 6.30959,-8.05771 h 4.56148 l -6.4325,8.03039 6.66467,12.35971 h -4.47953 l -4.83463,-9.1776 -1.78908,2.26709 v 6.91051 h -4.02885 z"
     style="font-weight:bold;font-size:27.9698px;line-height:1.25;font-family:hack;-inkscape-font-specification:'hack Bold';letter-spacing:0px;word-spacing:-0.00655544px;fill:#008026;fill-opacity:1;stroke-width:0.655544"
     id="path6536" />
  <path
     d="m 230.04011,156.84888 h 3.57816 l 0.39606,2.2944 q 0.43703,-1.28377 1.46131,-1.96663 1.02429,-0.69651 2.49926,-0.69651 2.13051,0 3.23674,1.46131 1.10623,1.46131 1.10623,4.27468 v 9.92874 h -3.97423 v -9.31417 q 0,-1.61154 -0.46434,-2.34902 -0.45069,-0.75115 -1.40669,-0.75115 -1.16085,0 -1.81639,0.98332 -0.64189,0.98331 -0.64189,2.6768 v 8.75422 h -3.97422 z"
     style="font-weight:bold;font-size:27.9698px;line-height:1.25;font-family:hack;-inkscape-font-specification:'hack Bold';letter-spacing:0px;word-spacing:-0.00655544px;fill:#004dff;fill-opacity:1;stroke-width:0.655544"
     id="path6538" />
  <path
     d="m 252.94311,172.54092 q -2.17149,0 -3.76937,-0.98331 -1.58423,-0.98331 -2.44463,-2.7724 -0.8604,-1.80274 -0.8604,-4.26102 0,-2.47194 0.8604,-4.27468 0.87406,-1.80275 2.47194,-2.78606 1.61154,-0.98331 3.81034,-0.98331 2.17148,0 3.74205,0.96965 1.58423,0.956 2.43097,2.74509 0.84675,1.77542 0.84675,4.24736 0,2.49926 -0.87406,4.31566 -0.8604,1.8164 -2.44463,2.79971 -1.58422,0.98331 -3.76936,0.98331 z m 0.0136,-3.25039 q 1.42034,0 2.23977,-1.28378 0.83309,-1.29742 0.83309,-3.49622 0,-2.21246 -0.83309,-3.49623 -0.81943,-1.28377 -2.23977,-1.28377 -1.42034,0 -2.25342,1.29743 -0.83309,1.28377 -0.83309,3.48257 0,2.18514 0.83309,3.48257 0.83308,1.29743 2.25342,1.29743 z"
     style="font-weight:bold;font-size:27.9698px;line-height:1.25;font-family:hack;-inkscape-font-specification:'hack Bold';letter-spacing:0px;word-spacing:-0.00655544px;fill:#004dff;fill-opacity:1;stroke-width:0.655544"
     id="path6540" />
  <path
     d="m 272.13136,172.25412 q -2.84068,0 -4.09713,-1.48863 -1.2428,-1.50228 -1.2428,-4.88925 v -11.90901 h -4.05617 v -3.07286 h 8.05771 v 14.98187 q 0,1.77543 0.55994,2.54023 0.5736,0.7648 1.89834,0.7648 h 3.19577 v 3.07285 z"
     style="font-weight:bold;font-size:27.9698px;line-height:1.25;font-family:hack;-inkscape-font-specification:'hack Bold';letter-spacing:0px;word-spacing:-0.00655544px;fill:#004dff;fill-opacity:1;stroke-width:0.655544"
     id="path6542" />
  <path
     d="m 288.97061,172.25412 q -2.84068,0 -4.09714,-1.48863 -1.24279,-1.50228 -1.24279,-4.88925 v -11.90901 h -4.05617 v -3.07286 h 8.0577 v 14.98187 q 0,1.77543 0.55995,2.54023 0.5736,0.7648 1.89834,0.7648 h 3.19577 v 3.07285 z"
     style="font-weight:bold;font-size:27.9698px;line-height:1.25;font-family:hack;-inkscape-font-specification:'hack Bold';letter-spacing:0px;word-spacing:-0.00655544px;fill:#750787;fill-opacity:1;stroke-width:0.655544"
     id="path6544" />
  <path
     d="m 304.22564,172.54092 q -3.94692,0 -6.00914,-2.03491 -2.04857,-2.04857 -2.04857,-5.91354 0,-2.44462 0.84674,-4.26102 0.84674,-1.83006 2.52657,-2.84068 1.69348,-1.01063 4.23371,-1.01063 2.08954,0 3.61914,0.96965 1.5296,0.96966 2.36268,2.70412 0.84674,1.72079 0.84674,4.01519 v 1.6252 h -10.36576 q 0,3.57817 4.17908,3.57817 2.74509,0 5.5448,-1.65251 v 3.67376 q -2.78606,1.1472 -5.73599,1.1472 z m 2.34902,-9.75119 q 0,-1.58423 -0.77846,-2.39 -0.77845,-0.81942 -2.22611,-0.81942 -1.47497,0 -2.30805,0.83308 -0.83309,0.83309 -0.98332,2.37634 z"
     style="font-weight:bold;font-size:27.9698px;line-height:1.25;font-family:hack;-inkscape-font-specification:'hack Bold';letter-spacing:0px;word-spacing:-0.00655544px;fill:#750787;fill-opacity:1;stroke-width:0.655544"
     id="path6546" />
  <text
     xml:space="preserve"
     id="text89868"
     style="font-size:20px;line-height:1.25;font-family:Kanit;-inkscape-font-specification:Kanit;letter-spacing:-48.85px;word-spacing:-0.01px;white-space:pre;shape-inside:url(#rect89870)"
     transform="matrix(0.70476181,0,0,0.70476181,0.71868115,-5.0765374)" />
  <text
     xml:space="preserve"
     style="font-size:20px;line-height:1.25;font-family:Consolas;-inkscape-font-specification:Consolas;letter-spacing:-48.85px;word-spacing:0px"
     x="349.76935"
     y="66.694199"
     id="text18536"><tspan
       sodipodi:role="line"
       id="tspan18534"
       x="349.76935"
       y="66.694199" /></text>
  <g
     id="g1039"
     transform="matrix(0.23075196,0,0,0.23075196,283.46947,138.06887)">
	<g
   id="g1000">
		<rect
   fill="#ffffff"
   width="80"
   height="15"
   id="rect998"
   x="0"
   y="0" />

	</g>

	<path
   d="m 22.797,2 c 1.003,1.595 1.593,3.477 1.593,5.501 0,2.023 -0.589,3.904 -1.592,5.499 H 80 V 2 Z"
   id="path1002" />

	<g
   id="g1007">
		<path
   id="text2809_5_"
   d="m 12.42,2.031 c -3.137,0 -3.926,2.959 -3.926,5.469 0,2.51 0.787,5.469 3.926,5.469 3.137,0 3.924,-2.959 3.924,-5.469 0,-2.51 -0.787,-5.469 -3.924,-5.469 z m 0,2.063 c 0.127,0 0.242,0.02 0.352,0.047 0.227,0.193 0.336,0.463 0.121,0.838 l -2.09,3.838 C 10.738,8.33 10.729,7.855 10.729,7.5 c 0,-1.105 0.078,-3.406 1.691,-3.406 z m 1.562,1.769 c 0.111,0.588 0.127,1.203 0.127,1.637 0,1.105 -0.076,3.406 -1.689,3.406 -0.127,0 -0.244,-0.012 -0.354,-0.039 -0.02,-0.006 -0.039,-0.014 -0.061,-0.021 -0.031,-0.01 -0.066,-0.02 -0.098,-0.031 -0.359,-0.154 -0.586,-0.43 -0.26,-0.92 z" />

		<path
   d="M 21.229,3.848 C 20.764,2.696 20.086,1.676 19.194,0.782 18.907,0.496 18.607,0.241 18.302,0 h -3.708 c 1.248,0.348 2.367,1.009 3.354,1.998 0.736,0.736 1.299,1.576 1.684,2.516 0.385,0.94 0.578,1.936 0.578,2.986 0,2.184 -0.746,3.994 -2.227,5.441 -0.771,0.746 -1.635,1.32 -2.596,1.717 -0.344,0.143 -0.694,0.251 -1.046,0.342 h 3.892 c 0.336,-0.257 0.664,-0.529 0.972,-0.834 0.895,-0.871 1.57,-1.871 2.021,-3 C 21.691,10.023 21.919,8.803 21.919,7.5 21.92,6.211 21.691,4.99 21.229,3.848 Z M 6.957,12.975 C 6.211,12.229 5.635,11.385 5.228,10.448 4.832,9.497 4.628,8.518 4.628,7.501 4.628,6.472 4.831,5.485 5.228,4.546 5.634,3.597 6.21,2.743 6.957,1.985 7.916,1.004 9.021,0.346 10.268,0 H 6.58 C 6.289,0.235 6.004,0.484 5.732,0.762 4.816,1.676 4.117,2.721 3.631,3.887 3.156,5.041 2.92,6.244 2.92,7.5 c 0,1.268 0.236,2.471 0.711,3.613 0.475,1.142 1.164,2.17 2.068,3.086 0.295,0.291 0.606,0.553 0.924,0.801 h 3.88 C 10.158,14.912 9.817,14.809 9.484,14.672 8.547,14.277 7.705,13.711 6.957,12.975 Z"
   id="path1005" />

	</g>

	<g
   id="g1011">
		<path
   d="M 80,0 V 15 H 0 V 0 H 80 M 79.25,0.75 H 0.75 v 13.5 h 78.5 z"
   id="path1009" />

	</g>

	<g
   id="g1037">
		<path
   fill="#ffffff"
   d="m 30.514,8.106 c -0.279,0.233 -0.678,0.35 -1.197,0.35 h -0.993 v 1.717 H 27.333 V 5.398 h 2.05 c 0.473,0 0.849,0.123 1.13,0.369 0.281,0.246 0.422,0.628 0.422,1.144 -10e-4,0.564 -0.141,0.962 -0.421,1.195 z M 29.753,6.387 C 29.626,6.281 29.449,6.228 29.222,6.228 h -0.898 v 1.406 h 0.898 c 0.228,0 0.404,-0.058 0.531,-0.172 0.126,-0.114 0.189,-0.296 0.189,-0.544 0,-0.249 -0.063,-0.426 -0.189,-0.531 z"
   id="path1013" />

		<path
   fill="#ffffff"
   d="m 31.733,5.398 h 1.015 v 2.933 c 0,0.328 0.038,0.567 0.116,0.718 0.12,0.268 0.383,0.401 0.787,0.401 0.402,0 0.664,-0.134 0.784,-0.401 0.077,-0.15 0.116,-0.39 0.116,-0.718 V 5.398 h 1.014 v 2.935 c 0,0.508 -0.079,0.902 -0.236,1.186 -0.293,0.519 -0.853,0.777 -1.678,0.777 -0.826,0 -1.387,-0.259 -1.682,-0.777 C 31.812,9.236 31.733,8.841 31.733,8.333 Z"
   id="path1015" />

		<path
   fill="#ffffff"
   d="m 40.085,5.907 c 0.146,0.203 0.219,0.446 0.219,0.729 0,0.292 -0.074,0.526 -0.221,0.703 -0.083,0.1 -0.204,0.19 -0.364,0.272 0.243,0.088 0.427,0.229 0.551,0.421 0.124,0.192 0.187,0.425 0.187,0.699 0,0.283 -0.071,0.537 -0.213,0.761 -0.09,0.149 -0.203,0.274 -0.338,0.376 -0.152,0.117 -0.332,0.196 -0.539,0.24 -0.208,0.043 -0.433,0.064 -0.675,0.064 H 36.54 V 5.398 h 2.308 c 0.582,0.009 0.994,0.179 1.237,0.509 z M 37.492,6.228 V 7.28 h 1.16 c 0.208,0 0.376,-0.039 0.505,-0.118 0.13,-0.079 0.194,-0.219 0.194,-0.419 0,-0.223 -0.086,-0.369 -0.257,-0.44 -0.147,-0.05 -0.335,-0.075 -0.563,-0.075 z m 0,1.842 v 1.273 h 1.159 c 0.207,0 0.368,-0.028 0.483,-0.084 0.209,-0.104 0.313,-0.303 0.313,-0.597 0,-0.248 -0.101,-0.419 -0.304,-0.512 C 39.031,8.1 38.872,8.073 38.667,8.07 Z"
   id="path1017" />

		<path
   fill="#ffffff"
   d="m 41.313,5.398 h 0.998 v 3.916 h 2.384 v 0.858 h -3.382 z"
   id="path1019" />

		<path
   fill="#ffffff"
   d="M 46.275,10.173 H 45.284 V 5.398 h 0.991 z"
   id="path1021" />

		<path
   fill="#ffffff"
   d="m 47.665,5.897 c 0.385,-0.393 0.874,-0.59 1.468,-0.59 0.795,0 1.376,0.264 1.743,0.791 0.203,0.296 0.312,0.593 0.327,0.891 H 50.205 C 50.142,6.76 50.06,6.587 49.961,6.47 49.783,6.263 49.52,6.159 49.171,6.159 c -0.355,0 -0.636,0.146 -0.841,0.438 -0.205,0.292 -0.308,0.707 -0.308,1.242 0,0.535 0.108,0.937 0.324,1.203 0.217,0.267 0.492,0.4 0.826,0.4 0.342,0 0.603,-0.114 0.782,-0.344 0.1,-0.123 0.182,-0.308 0.247,-0.554 h 0.991 c -0.086,0.521 -0.304,0.943 -0.655,1.27 -0.351,0.327 -0.802,0.489 -1.351,0.489 -0.68,0 -1.214,-0.221 -1.603,-0.661 C 47.194,9.2 47,8.593 47,7.822 47.002,6.991 47.224,6.349 47.665,5.897 Z"
   id="path1023" />

		<path
   fill="#ffffff"
   d="m 54.797,5.502 c 0.335,0.11 0.606,0.312 0.813,0.606 0.167,0.237 0.28,0.494 0.341,0.771 0.061,0.277 0.091,0.54 0.091,0.79 0,0.635 -0.128,1.173 -0.383,1.613 -0.346,0.594 -0.88,0.891 -1.602,0.891 H 51.998 V 5.398 h 2.059 c 0.297,0.005 0.544,0.04 0.74,0.104 z m -1.829,0.726 v 3.116 h 0.922 c 0.471,0 0.8,-0.232 0.985,-0.696 0.102,-0.255 0.152,-0.559 0.152,-0.91 0,-0.486 -0.076,-0.859 -0.229,-1.119 -0.153,-0.26 -0.455,-0.391 -0.909,-0.391 z"
   id="path1025" />

		<path
   fill="#ffffff"
   d="m 60.466,9.749 c -0.36,0.371 -0.882,0.557 -1.564,0.557 -0.682,0 -1.204,-0.186 -1.564,-0.557 -0.483,-0.456 -0.726,-1.112 -0.726,-1.97 0,-0.875 0.242,-1.531 0.726,-1.97 0.36,-0.371 0.882,-0.557 1.564,-0.557 0.682,0 1.204,0.186 1.564,0.557 0.481,0.438 0.722,1.095 0.722,1.97 0,0.858 -0.241,1.514 -0.722,1.97 z M 59.842,9.023 c 0.232,-0.292 0.349,-0.706 0.349,-1.244 0,-0.535 -0.116,-0.949 -0.349,-1.242 -0.231,-0.293 -0.545,-0.438 -0.94,-0.438 -0.395,0 -0.711,0.146 -0.946,0.437 -0.235,0.292 -0.353,0.706 -0.353,1.244 0,0.538 0.117,0.952 0.353,1.244 0.235,0.291 0.551,0.437 0.946,0.437 0.395,0 0.708,-0.147 0.94,-0.438 z"
   id="path1027" />

		<path
   fill="#ffffff"
   d="m 65.116,5.398 h 1.436 v 4.774 H 65.623 V 6.943 c 0,-0.093 10e-4,-0.223 0.003,-0.39 0.002,-0.168 0.003,-0.297 0.003,-0.388 l -0.904,4.007 h -0.97 L 62.857,6.165 c 0,0.091 10e-4,0.22 0.003,0.388 0.003,0.167 0.004,0.297 0.004,0.39 v 3.229 h -0.93 V 5.398 h 1.451 l 0.869,3.754 z"
   id="path1029" />

		<path
   fill="#ffffff"
   d="m 68.84,5.398 h 1.129 l 1.689,4.774 H 70.576 L 70.262,9.191 h -1.759 l -0.323,0.981 h -1.044 z m -0.066,2.971 h 1.223 L 69.395,6.49 Z"
   id="path1031" />

		<path
   fill="#ffffff"
   d="M 73.175,10.173 H 72.184 V 5.398 h 0.991 z"
   id="path1033" />

		<path
   fill="#ffffff"
   d="m 74.093,5.398 h 1.046 l 1.895,3.329 V 5.398 h 0.93 v 4.774 H 76.967 L 75.024,6.784 v 3.388 h -0.93 V 5.398 Z"
   id="path1035" />

	</g>

</g>
  <text
     xml:space="preserve"
     style="font-size:7.12908px;line-height:1.25;font-family:Consolas;-inkscape-font-specification:Consolas;letter-spacing:0.356454px;word-spacing:-0.00356454px;stroke-width:0.356454"
     x="173.1441"
     y="141.09689"
     id="text35516"><tspan
       sodipodi:role="line"
       id="tspan35514"
       x="173.1441"
       y="141.09689"
       style="font-style:normal;font-variant:normal;font-weight:normal;font-stretch:normal;font-size:3.80219px;font-family:Consolas;-inkscape-font-specification:'Consolas, Normal';font-variant-ligatures:normal;font-variant-caps:normal;font-variant-numeric:normal;font-variant-east-asian:normal;stroke-width:0.356454">https://github.com/Wikinaut/RolleStattKnolle</tspan></text>
</svg>
